<svg width="88" height="31" viewBox="0 0 88 31" fill="none" xmlns="http://www.w3.org/2000/svg">
<g clip-path="url(#clip0_1_2)">
<path d="M5.47528 0.424286H82.5245C85.1165 0.424286 87.2499 2.55762 87.2499 5.14966V25.8503C87.2499 28.4424 85.1165 30.5757 82.5245 30.5757H5.47528C2.88324 30.5757 0.749908 28.4424 0.749908 25.8503V5.14966C0.749908 2.55762 2.88324 0.424286 5.47528 0.424286Z" fill="url(#paint0_linear_1_2)" stroke="url(#paint1_linear_1_2)" stroke-width="0.494285"/>
<path fill-rule="evenodd" clip-rule="evenodd" d="M6.44949 9.9522C6.45883 9.9522 6.87365 10.3541 7.3725 10.8457C7.87002 11.3386 8.27683 11.7458 8.27683 11.7524C8.27683 11.7589 8.13545 11.9026 7.96339 12.0726C7.78999 12.2426 7.58591 12.4548 7.50855 12.5457C7.43119 12.6353 7.29914 12.7974 7.21644 12.9041C7.13241 13.0122 6.98969 13.2125 6.89766 13.3496C6.80562 13.4866 6.67624 13.6975 6.60822 13.8187C6.54019 13.9386 6.43348 14.1429 6.37079 14.272C6.3081 14.3999 6.21607 14.6081 6.16672 14.732C6.11603 14.8572 6.04801 15.039 6.01466 15.1379C5.98132 15.2367 5.9373 15.3777 5.91596 15.4502C5.89462 15.524 5.85594 15.6676 5.82926 15.7717C5.80392 15.8745 5.77057 16.0221 5.7559 16.0986C5.74123 16.1763 5.71588 16.3199 5.69988 16.4188C5.68387 16.5176 5.6572 16.7113 5.64252 16.8484C5.61985 17.0408 5.61318 17.224 5.61318 17.6299C5.61318 18.0331 5.61985 18.2189 5.64119 18.4034C5.6572 18.5365 5.67987 18.7158 5.69321 18.8014C5.70655 18.8871 5.73189 19.0281 5.74923 19.1137C5.76524 19.2007 5.79058 19.3167 5.80392 19.372C5.81726 19.4274 5.8426 19.5302 5.85994 19.5987C5.87728 19.6672 5.91596 19.8003 5.9453 19.8952C5.97465 19.9901 6.02 20.1298 6.04801 20.2075C6.07468 20.2853 6.1147 20.3934 6.13737 20.45C6.16005 20.5054 6.2094 20.6253 6.24942 20.7149C6.2881 20.8058 6.37346 20.9851 6.43882 21.1142C6.50418 21.242 6.60822 21.4358 6.67224 21.5438C6.73493 21.6506 6.8323 21.8061 6.88699 21.8865C6.94034 21.9682 7.02837 22.0947 7.08173 22.1685C7.13374 22.2409 7.24312 22.382 7.32315 22.4808C7.40184 22.5796 7.50855 22.7061 7.5579 22.7615C7.60725 22.8182 7.75264 22.9684 7.87935 23.0962C8.0074 23.2241 8.19014 23.3967 8.28484 23.4797C8.38087 23.5627 8.52626 23.684 8.60896 23.7485C8.69166 23.8118 8.8237 23.9106 8.9024 23.966C8.97976 24.0213 9.11581 24.1136 9.20251 24.1689C9.28921 24.2256 9.42793 24.3113 9.51063 24.3587C9.59332 24.4061 9.73604 24.4839 9.82674 24.5313C9.91744 24.5788 10.0895 24.6618 10.2069 24.7145C10.3243 24.7685 10.4736 24.8331 10.5377 24.8582C10.603 24.8845 10.7244 24.9306 10.8071 24.9596C10.8898 24.9886 11.0605 25.0453 11.1859 25.0835C11.3126 25.1217 11.4874 25.1705 11.5741 25.1916C11.6608 25.2127 11.7781 25.239 11.8355 25.2522C11.8915 25.264 12.0236 25.2891 12.1276 25.3062C12.2316 25.3234 12.3957 25.3484 12.4904 25.3616C12.5864 25.3747 12.7785 25.3932 12.9186 25.4037C13.0573 25.413 13.324 25.4209 13.5108 25.4209C13.6975 25.4209 13.9576 25.413 14.0883 25.4037C14.219 25.3945 14.4071 25.3761 14.5071 25.3629C14.6072 25.3497 14.7526 25.3286 14.8313 25.3154C14.91 25.3009 15.0447 25.2759 15.1314 25.2588C15.2181 25.2403 15.3395 25.214 15.4008 25.1982C15.4608 25.1823 15.5649 25.1547 15.6302 25.1362C15.6943 25.1178 15.7729 25.0954 15.8036 25.0875C15.8343 25.0782 15.933 25.0466 16.025 25.0163C16.1157 24.986 16.2865 24.924 16.4038 24.8779C16.5212 24.8331 16.6746 24.7699 16.744 24.7382C16.8133 24.7066 16.9601 24.6368 17.0681 24.5827C17.1775 24.5287 17.3482 24.4365 17.4482 24.3785C17.5483 24.3205 17.687 24.2375 17.7564 24.194C17.8257 24.1505 17.9711 24.0516 18.0805 23.9752C18.1885 23.8988 18.3459 23.7815 18.4286 23.7169C18.5113 23.651 18.646 23.539 18.7287 23.4665C18.8114 23.3941 18.9448 23.2715 19.0262 23.1924C19.1075 23.1147 19.2569 22.9592 19.3583 22.8472C19.4597 22.7365 19.597 22.5783 19.6637 22.4966C19.7291 22.4149 19.8465 22.2594 19.9252 22.1527C20.0025 22.0446 20.1026 21.9009 20.1466 21.8324C20.1906 21.7639 20.2746 21.6268 20.3333 21.528C20.392 21.4292 20.4854 21.2605 20.5401 21.1524C20.5947 21.0457 20.6654 20.9007 20.6974 20.8322C20.7295 20.7637 20.7935 20.6121 20.8388 20.4961C20.8855 20.3802 20.9522 20.201 20.9869 20.0982C21.0216 19.9954 21.0696 19.8438 21.0923 19.7621C21.1163 19.6804 21.1483 19.5644 21.1629 19.5051C21.179 19.4445 21.2003 19.3536 21.211 19.3022C21.2216 19.2495 21.243 19.1375 21.2603 19.0518C21.2763 18.9661 21.3043 18.7935 21.3217 18.6683C21.339 18.5444 21.3604 18.3375 21.371 18.2084C21.3804 18.0792 21.3884 17.8157 21.3884 17.622C21.3884 17.4296 21.3804 17.166 21.3697 17.0368C21.3604 16.9077 21.339 16.7034 21.3217 16.5835C21.3043 16.4636 21.283 16.3226 21.2737 16.2712C21.2657 16.2198 21.243 16.1065 21.2243 16.0208C21.207 15.9351 21.167 15.7704 21.1376 15.6544C21.1069 15.5385 21.0616 15.3764 21.0349 15.2947C21.0082 15.213 20.9482 15.0403 20.9002 14.9125C20.8508 14.7834 20.7761 14.5962 20.7321 14.4974C20.6881 14.3986 20.5961 14.2088 20.5267 14.0757C20.4574 13.9426 20.3533 13.7528 20.2946 13.654C20.2346 13.5551 20.1252 13.3838 20.0492 13.2718C19.9732 13.1598 19.8385 12.9766 19.7504 12.8659C19.6624 12.7539 19.5503 12.6168 19.5023 12.5602C19.4543 12.5048 19.3436 12.3849 19.2569 12.2927C19.1702 12.2017 19.0155 12.0475 18.9101 11.95C18.8061 11.8525 18.7194 11.7655 18.7167 11.7563C18.714 11.7471 19.1209 11.3359 20.5294 9.94429L20.5721 9.96801C20.5947 9.97987 20.7575 10.1354 20.9322 10.3106C21.1083 10.4872 21.323 10.7126 21.4097 10.8114C21.4964 10.9103 21.6111 11.0434 21.6631 11.1079C21.7165 11.1725 21.8365 11.3267 21.9299 11.4519C22.0246 11.5758 22.174 11.7866 22.2634 11.9197C22.3514 12.0528 22.4861 12.2676 22.5635 12.3968C22.6395 12.5259 22.7715 12.7644 22.8556 12.9279C22.9396 13.0913 23.0543 13.3272 23.109 13.451C23.1637 13.5762 23.237 13.7475 23.2704 13.8345C23.3051 13.9202 23.3678 14.0915 23.4118 14.2167C23.4558 14.3419 23.5118 14.5106 23.5385 14.5923C23.5638 14.6727 23.5985 14.7926 23.6159 14.8572C23.6332 14.9217 23.6585 15.0127 23.6705 15.0601C23.6825 15.1075 23.7106 15.2235 23.7319 15.3184C23.7532 15.412 23.7826 15.5424 23.7946 15.607C23.8079 15.6716 23.8293 15.7836 23.8426 15.8574C23.8559 15.9299 23.8813 16.092 23.8986 16.2158C23.916 16.341 23.9453 16.6086 23.964 16.8102C23.9907 17.0882 24 17.2846 24 17.622C24 17.9633 23.992 18.153 23.9653 18.4351C23.9453 18.6367 23.916 18.9016 23.8986 19.0241C23.8813 19.1467 23.8559 19.3114 23.8426 19.3918C23.8293 19.4709 23.7933 19.6501 23.7639 19.7898C23.7332 19.9295 23.6879 20.1232 23.6625 20.2194C23.6372 20.3156 23.5985 20.4553 23.5772 20.5278C23.5558 20.6016 23.5158 20.7307 23.4878 20.8164C23.4598 20.9034 23.3998 21.0747 23.3531 21.1999C23.3064 21.3237 23.2464 21.4792 23.2197 21.5438C23.1917 21.6084 23.1597 21.6822 23.149 21.7072C23.1383 21.7336 23.1077 21.7995 23.0837 21.8561C23.0583 21.9115 22.9783 22.0762 22.9049 22.2225C22.8329 22.3688 22.7195 22.5836 22.6542 22.6996C22.5875 22.8155 22.4728 23.0053 22.3994 23.1213C22.3247 23.2372 22.218 23.3993 22.162 23.481C22.106 23.5627 21.9899 23.7209 21.9059 23.8316C21.8219 23.9436 21.6765 24.1268 21.5831 24.2388C21.4884 24.3495 21.351 24.5076 21.2763 24.5893C21.2016 24.671 21.0256 24.8503 20.8855 24.9886C20.7455 25.1257 20.536 25.3207 20.42 25.4209C20.3026 25.521 20.1212 25.6713 20.0172 25.753C19.9132 25.836 19.7237 25.9757 19.5984 26.064C19.4717 26.1536 19.2516 26.2999 19.1075 26.3895C18.9648 26.4804 18.7554 26.6056 18.642 26.6675C18.5286 26.7308 18.2872 26.8533 18.1045 26.9403C17.9217 27.0286 17.747 27.1116 17.7163 27.1248C17.6857 27.138 17.5896 27.1789 17.5029 27.2144C17.4162 27.25 17.2775 27.3027 17.1948 27.333C17.1121 27.3633 16.9307 27.4253 16.792 27.4714C16.6519 27.5175 16.4812 27.5702 16.4119 27.59C16.3425 27.6085 16.2531 27.6335 16.2144 27.644C16.1758 27.6559 16.0691 27.6823 15.977 27.7047C15.8863 27.7258 15.7049 27.764 15.5742 27.7903C15.4435 27.8154 15.2701 27.847 15.1874 27.8602C15.1047 27.8734 14.958 27.8958 14.8633 27.9076C14.7672 27.9208 14.6072 27.9392 14.5071 27.9485C14.4071 27.9564 14.247 27.9722 14.151 27.9814C14.055 27.992 13.7669 27.9999 13.5108 27.9999C13.1493 28.0012 12.9599 27.9933 12.6731 27.9669C12.4691 27.9471 12.2236 27.9208 12.1276 27.9089C12.0316 27.8958 11.8928 27.8747 11.8195 27.8615C11.7448 27.8496 11.5887 27.822 11.4714 27.8009C11.354 27.7785 11.1192 27.7271 10.9498 27.6849C10.7804 27.6427 10.6057 27.5966 10.5617 27.5834C10.519 27.5702 10.4016 27.5347 10.3016 27.503C10.2015 27.4727 10.0308 27.4147 9.92144 27.3752C9.8134 27.3357 9.64934 27.2737 9.55731 27.2382C9.46661 27.2013 9.31322 27.1367 9.21852 27.0958C9.12248 27.055 8.90907 26.9522 8.74367 26.8692C8.57828 26.7861 8.33686 26.657 8.20614 26.5819C8.07543 26.5054 7.85801 26.3723 7.7233 26.284C7.58858 26.1971 7.37517 26.0495 7.24979 25.9559C7.12307 25.8637 6.96301 25.7411 6.89366 25.6858C6.8243 25.6291 6.69225 25.5197 6.60155 25.442C6.50951 25.3655 6.27743 25.1468 6.08536 24.957C5.89328 24.7685 5.64252 24.5037 5.52782 24.3706C5.41177 24.2375 5.22637 24.0095 5.11566 23.8632C5.00495 23.7169 4.86357 23.5232 4.80355 23.4336C4.74219 23.344 4.66083 23.2201 4.62215 23.1608C4.58213 23.1002 4.50077 22.9671 4.43941 22.863C4.37806 22.7602 4.3047 22.6337 4.27668 22.5823C4.24867 22.5309 4.16864 22.3754 4.09929 22.2383C4.02993 22.1013 3.93389 21.9009 3.88587 21.7929C3.83919 21.6861 3.77917 21.5451 3.75249 21.4806C3.72581 21.416 3.68046 21.2974 3.64979 21.2157C3.61911 21.134 3.56709 20.9864 3.53374 20.8875C3.5004 20.7887 3.46705 20.6833 3.45771 20.653C3.44838 20.6227 3.4257 20.5449 3.40703 20.4816C3.38836 20.4171 3.35101 20.2827 3.32567 20.1838C3.30032 20.085 3.26431 19.9374 3.24697 19.8557C3.2283 19.774 3.20429 19.658 3.19228 19.5987C3.18161 19.5381 3.1536 19.376 3.13226 19.2389C3.11092 19.1019 3.08157 18.8989 3.06824 18.7896C3.0549 18.6802 3.03889 18.5089 3.03489 18.4074C3.02956 18.3059 3.01888 18.2097 3.01088 18.1926C3.00155 18.1741 2.99754 17.9461 3.00155 17.622C3.00555 17.3254 3.01622 16.996 3.02555 16.8879C3.03489 16.7812 3.05356 16.5941 3.0669 16.4741C3.08157 16.3542 3.10692 16.1644 3.12426 16.0524C3.1416 15.9404 3.16694 15.7928 3.18028 15.7243C3.19362 15.6558 3.21763 15.5319 3.23496 15.4502C3.2523 15.3698 3.29365 15.1932 3.32833 15.0601C3.36168 14.927 3.41903 14.7227 3.45505 14.6068C3.49106 14.4908 3.55242 14.305 3.59243 14.193C3.63111 14.081 3.70847 13.8806 3.76316 13.7475C3.81785 13.6144 3.89921 13.4247 3.94456 13.3258C3.98991 13.227 4.06994 13.0623 4.12329 12.9595C4.17665 12.8567 4.26868 12.6841 4.33004 12.576C4.39006 12.4693 4.4861 12.3072 4.54212 12.2175C4.59814 12.1266 4.70618 11.9619 4.78221 11.8499C4.8569 11.7379 4.97161 11.5771 5.03563 11.4901C5.09966 11.4044 5.19569 11.2819 5.24771 11.2173C5.29973 11.1527 5.39176 11.0407 5.45312 10.9669C5.51448 10.8944 5.63185 10.7613 5.71455 10.6704C5.79591 10.5808 5.99199 10.3818 6.14805 10.2289C6.3041 10.0761 6.44015 9.9522 6.44949 9.9522ZM9.33456 12.7526C9.3479 12.7631 10.0868 13.4906 12.5944 15.9668V19.9651C12.5944 22.6165 12.5891 23.9673 12.5784 23.9726C12.5691 23.9765 12.5584 23.9739 12.5544 23.9647C12.5504 23.9568 12.4877 23.9449 12.4157 23.9396C12.3437 23.9344 12.2823 23.9251 12.277 23.9199C12.273 23.9133 12.2023 23.8961 12.1196 23.8816C12.0369 23.8672 11.9289 23.8461 11.8782 23.8355C11.8275 23.825 11.7875 23.8105 11.7875 23.8052C11.7875 23.7986 11.7568 23.7881 11.7208 23.7828C11.6834 23.7775 11.6461 23.7683 11.6367 23.7617C11.6287 23.7551 11.5767 23.7393 11.522 23.7275C11.4674 23.7169 11.4233 23.7011 11.4233 23.6958C11.4233 23.6892 11.3953 23.68 11.3606 23.6761C11.326 23.6708 11.2966 23.6603 11.2966 23.6523C11.2966 23.6431 11.2833 23.6365 11.2659 23.6365C11.2486 23.6365 11.1899 23.6194 11.1352 23.597C11.0805 23.5746 11.0219 23.5509 11.0045 23.543C10.9872 23.5351 10.9405 23.5153 10.9018 23.4982C10.8631 23.4823 10.8151 23.4639 10.7951 23.4586C10.7751 23.4534 10.7591 23.4428 10.7591 23.4336C10.7591 23.4244 10.7377 23.4138 10.7124 23.4099C10.6857 23.4059 10.6644 23.3954 10.6644 23.3861C10.6644 23.3782 10.643 23.3677 10.6177 23.3637C10.591 23.3585 10.5697 23.3506 10.5697 23.344C10.571 23.3374 10.5417 23.3216 10.507 23.3084C10.471 23.2952 10.443 23.2794 10.443 23.2741C10.443 23.2675 10.4216 23.2583 10.3963 23.2544C10.3696 23.2491 10.3483 23.2385 10.3483 23.2306C10.3483 23.2214 10.3229 23.2056 10.2936 23.1951C10.2629 23.1845 10.2376 23.17 10.2376 23.1647C10.2376 23.1582 10.2269 23.1529 10.2136 23.1529C10.2015 23.1529 10.1869 23.1423 10.1829 23.1292C10.1775 23.116 10.1535 23.1015 10.1269 23.0975C10.1015 23.0936 10.0802 23.083 10.0802 23.0738C10.0802 23.0659 10.0615 23.0514 10.0402 23.0435C10.0188 23.0343 9.95746 22.9974 9.9041 22.9605C9.85209 22.9249 9.79606 22.888 9.78273 22.8788C9.76939 22.8709 9.74938 22.8577 9.74004 22.8511C9.73204 22.8445 9.7027 22.8221 9.67602 22.801C9.65068 22.7799 9.62267 22.7615 9.61333 22.7615C9.60399 22.7615 9.58132 22.743 9.56131 22.722C9.54264 22.7009 9.5213 22.6837 9.51463 22.6837C9.50796 22.6824 9.48128 22.664 9.45461 22.6403C9.42793 22.6165 9.37191 22.5691 9.32923 22.5348C9.28654 22.5006 9.20251 22.4268 9.14116 22.3714C9.0798 22.3161 8.97443 22.2172 8.9064 22.1527C8.83838 22.0881 8.78369 22.0314 8.78369 22.0275C8.78502 22.0235 8.73834 21.9747 8.68232 21.9181C8.62496 21.8627 8.57828 21.8113 8.57828 21.8047C8.57828 21.7982 8.55427 21.7692 8.52626 21.7402C8.49825 21.7099 8.46224 21.6703 8.44623 21.6506C8.43156 21.6295 8.40622 21.5965 8.39154 21.5768C8.37687 21.5557 8.35153 21.528 8.33686 21.5135C8.32085 21.5003 8.30885 21.4832 8.30885 21.4766C8.30885 21.47 8.29417 21.4489 8.27683 21.4305C8.25949 21.4107 8.24482 21.3857 8.24482 21.3751C8.24482 21.3646 8.23549 21.3527 8.22215 21.3475C8.20881 21.3435 8.19814 21.3303 8.19814 21.3172C8.19814 21.304 8.19147 21.2934 8.18213 21.2934C8.17413 21.2934 8.15812 21.2737 8.14745 21.2499C8.13678 21.2262 8.11811 21.2025 8.10744 21.1959C8.09677 21.1893 8.08743 21.1735 8.08743 21.1603C8.08743 21.1472 8.0821 21.1366 8.07543 21.1366C8.06876 21.1366 8.04341 21.0997 8.01674 21.0549C7.9914 21.0101 7.96205 20.964 7.95005 20.9534C7.93804 20.9429 7.93004 20.9231 7.93004 20.9113C7.93004 20.8981 7.92204 20.8875 7.91403 20.8875C7.9047 20.8875 7.89002 20.8625 7.88202 20.8322C7.87268 20.8019 7.85935 20.7782 7.85001 20.7782C7.84201 20.7782 7.83134 20.7597 7.826 20.7386C7.822 20.7175 7.81133 20.7004 7.80333 20.7004C7.79399 20.7004 7.78332 20.6793 7.77932 20.653C7.77532 20.6266 7.76464 20.6055 7.75531 20.6055C7.7473 20.6055 7.7393 20.5976 7.7393 20.5871C7.7393 20.5752 7.72063 20.5278 7.69662 20.4816C7.67261 20.4342 7.64727 20.3934 7.6406 20.3907C7.63393 20.3894 7.62859 20.3789 7.62859 20.3683C7.62859 20.3565 7.61526 20.3196 7.59792 20.2853C7.58058 20.251 7.5619 20.2036 7.5579 20.1799C7.5539 20.1561 7.54323 20.1377 7.53389 20.1377C7.52589 20.1377 7.51522 20.1127 7.50988 20.0823C7.50588 20.052 7.49521 20.0283 7.48721 20.0283C7.47787 20.0283 7.4632 19.9927 7.4552 19.9506C7.44586 19.9071 7.43252 19.8715 7.42318 19.8715C7.41518 19.8715 7.40451 19.8438 7.39918 19.8096C7.39517 19.7753 7.3845 19.7463 7.3765 19.7463C7.36716 19.7463 7.35649 19.7147 7.35249 19.6765C7.34849 19.6382 7.33782 19.6027 7.32848 19.5987C7.32048 19.5947 7.30447 19.5499 7.2938 19.5012C7.28447 19.4511 7.26979 19.4037 7.26313 19.3958C7.25646 19.3865 7.24579 19.3457 7.23778 19.3048C7.23111 19.264 7.22178 19.231 7.21778 19.231C7.21377 19.231 7.20044 19.1704 7.18843 19.0953C7.17643 19.0202 7.16042 18.9503 7.15375 18.9424C7.14708 18.9332 7.13508 18.8752 7.12841 18.8133C7.12041 18.7513 7.10974 18.6999 7.10307 18.6999C7.0964 18.6999 7.08706 18.6314 7.08173 18.5484C7.07639 18.4641 7.06439 18.3863 7.05371 18.3731C7.04171 18.3586 7.03637 18.1425 7.03637 17.622C7.03637 17.108 7.04171 16.8866 7.05371 16.8708C7.06305 16.8589 7.07639 16.7851 7.08306 16.7087C7.08839 16.631 7.09906 16.5611 7.10707 16.5519C7.11374 16.544 7.12441 16.486 7.12974 16.4227C7.13508 16.3608 7.14441 16.3107 7.15108 16.3107C7.15775 16.3107 7.17109 16.2475 7.18176 16.1697C7.19377 16.092 7.20711 16.0261 7.21377 16.0234C7.22044 16.0195 7.23111 15.9865 7.23912 15.9483C7.24579 15.9114 7.25646 15.8732 7.26313 15.8653C7.26979 15.8561 7.28447 15.8073 7.29647 15.7559C7.30714 15.7045 7.32181 15.6544 7.32848 15.6465C7.33649 15.6373 7.34582 15.6044 7.35116 15.5714C7.35649 15.5398 7.36716 15.5134 7.3765 15.5134C7.3845 15.5134 7.39517 15.491 7.39918 15.462C7.40318 15.4344 7.41785 15.3909 7.43119 15.3645C7.44453 15.3395 7.4552 15.3079 7.4552 15.2947C7.4552 15.2815 7.46987 15.2433 7.48721 15.209C7.50321 15.1748 7.51789 15.1379 7.51789 15.1273C7.51789 15.1154 7.52589 15.1075 7.53389 15.1075C7.54323 15.1075 7.5499 15.0944 7.5499 15.0799C7.5499 15.0654 7.56991 15.014 7.59391 14.9665C7.61792 14.9191 7.64193 14.8782 7.6486 14.8769C7.65527 14.8743 7.66061 14.8624 7.66061 14.8492C7.66061 14.8361 7.69128 14.7675 7.7273 14.6977C7.76465 14.6265 7.79932 14.5646 7.80599 14.5606C7.81133 14.5567 7.82067 14.533 7.82467 14.5092C7.83 14.4855 7.83934 14.4671 7.84601 14.4671C7.85268 14.4671 7.86868 14.4447 7.88202 14.417C7.89403 14.388 7.91137 14.3564 7.9207 14.3445C7.93004 14.334 7.94471 14.3168 7.95405 14.3063C7.96339 14.2958 7.98073 14.2641 7.99406 14.2365C8.00607 14.2088 8.02207 14.1851 8.02874 14.1851C8.03408 14.1851 8.03941 14.1785 8.03941 14.1692C8.03941 14.1613 8.05542 14.131 8.07543 14.1034C8.09543 14.0757 8.11544 14.0493 8.11944 14.0454C8.12478 14.0401 8.14879 14.0032 8.17546 13.9623C8.20081 13.9215 8.22748 13.8886 8.23415 13.8886C8.24082 13.8886 8.24616 13.882 8.24616 13.8727C8.24616 13.8648 8.2635 13.8345 8.28484 13.8068C8.30751 13.7792 8.33552 13.7449 8.34753 13.733C8.36087 13.7199 8.37154 13.7041 8.37154 13.6975C8.37154 13.6909 8.39288 13.6645 8.41955 13.6382C8.44623 13.6131 8.46757 13.5855 8.46757 13.5762C8.46757 13.567 8.47558 13.5551 8.48758 13.5486C8.49825 13.542 8.52626 13.513 8.55027 13.4827C8.57428 13.4524 8.6383 13.3799 8.69299 13.3206C8.74634 13.2626 8.84505 13.1598 8.91174 13.0939C8.97843 13.028 9.08647 12.9265 9.15049 12.8686C9.21452 12.8106 9.27721 12.7565 9.28921 12.7486C9.30255 12.7394 9.31855 12.7407 9.33456 12.7526ZM17.707 12.7526C17.7257 12.7618 17.787 12.8119 17.8431 12.8646C17.8991 12.916 18.0031 13.0161 18.0725 13.0847C18.1418 13.1532 18.2459 13.2599 18.3019 13.3206C18.3579 13.3812 18.4326 13.4642 18.4673 13.5064C18.502 13.5486 18.55 13.6039 18.574 13.6303C18.598 13.6566 18.6167 13.683 18.6167 13.6896C18.618 13.6961 18.6353 13.7172 18.6567 13.7357C18.678 13.7555 18.6967 13.7765 18.6967 13.7831C18.6967 13.7897 18.7127 13.8148 18.7327 13.8398C18.7527 13.8648 18.7794 13.9004 18.7914 13.9189C18.8047 13.9386 18.8287 13.9689 18.8434 13.9874C18.8594 14.0058 18.8714 14.0269 18.8714 14.0335C18.8714 14.0401 18.8808 14.0533 18.8914 14.0638C18.9034 14.0757 18.9328 14.1192 18.9581 14.1627C18.9835 14.2048 19.0075 14.243 19.0128 14.2483C19.0182 14.2523 19.0302 14.2734 19.0408 14.2944C19.0515 14.3168 19.0688 14.3485 19.0808 14.3656C19.0915 14.3827 19.1049 14.3999 19.1089 14.4038C19.1142 14.4091 19.1289 14.4355 19.1409 14.4631C19.1529 14.4908 19.1689 14.5132 19.1755 14.5132C19.1822 14.5132 19.1916 14.533 19.1969 14.5567C19.2009 14.5804 19.2102 14.6028 19.2169 14.6068C19.2236 14.612 19.2582 14.6766 19.2943 14.7517C19.3316 14.8268 19.3609 14.8954 19.3609 14.9046C19.3609 14.9125 19.3676 14.9191 19.377 14.9191C19.385 14.9191 19.401 14.9454 19.4116 14.9784C19.421 15.01 19.4396 15.0548 19.4503 15.0759C19.4623 15.097 19.4717 15.1234 19.4717 15.1339C19.4717 15.1458 19.477 15.1563 19.4837 15.1576C19.4903 15.1603 19.509 15.1972 19.525 15.2393C19.541 15.2828 19.5624 15.3474 19.5717 15.3843C19.5824 15.4212 19.5957 15.4515 19.6024 15.4515C19.609 15.4515 19.617 15.4792 19.6224 15.5134C19.6264 15.5477 19.637 15.5754 19.6464 15.5754C19.6544 15.5754 19.6691 15.6215 19.6771 15.6768C19.6864 15.7335 19.6984 15.7783 19.7051 15.7783C19.7117 15.7783 19.7224 15.8139 19.7291 15.8574C19.7358 15.8996 19.7464 15.9351 19.7531 15.9351C19.7584 15.9351 19.7704 15.9681 19.7771 16.0089C19.7838 16.0498 19.7984 16.1117 19.8104 16.146C19.8225 16.1803 19.8371 16.2554 19.8411 16.3134C19.8465 16.3713 19.8571 16.4188 19.8625 16.4188C19.8691 16.4188 19.8811 16.4768 19.8878 16.5479C19.8958 16.6191 19.9078 16.6837 19.9145 16.6929C19.9212 16.7008 19.9345 16.8154 19.9452 16.9472C19.9545 17.0777 19.9625 17.3848 19.9625 17.6299C19.9625 17.875 19.9545 18.1794 19.9438 18.3059C19.9345 18.4324 19.9212 18.5431 19.9145 18.5523C19.9078 18.5603 19.8985 18.6248 19.8931 18.696C19.8878 18.7672 19.8758 18.8251 19.8665 18.8251C19.8585 18.8251 19.8518 18.8449 19.8518 18.8686C19.8518 18.8923 19.8438 18.953 19.8345 19.0044C19.8251 19.0558 19.8104 19.1124 19.8038 19.1296C19.7958 19.1467 19.7864 19.1915 19.7811 19.2271C19.7758 19.264 19.7664 19.2969 19.7598 19.2996C19.7544 19.3035 19.7424 19.3404 19.7358 19.3813C19.7277 19.4234 19.7157 19.4643 19.7091 19.4735C19.7024 19.4814 19.6864 19.5302 19.6757 19.5789C19.6637 19.629 19.6477 19.6685 19.6424 19.6685C19.6357 19.6685 19.6264 19.7002 19.6224 19.7384C19.617 19.7779 19.609 19.8096 19.6024 19.8096C19.5957 19.8082 19.585 19.8293 19.5784 19.8557C19.5717 19.882 19.553 19.9347 19.5357 19.973C19.517 20.0125 19.5037 20.0547 19.5037 20.0665C19.5037 20.0797 19.4957 20.0903 19.4877 20.0903C19.4783 20.0903 19.4717 20.0982 19.4717 20.1061C19.4717 20.1153 19.4583 20.1522 19.441 20.1878C19.425 20.2247 19.4076 20.2734 19.4023 20.2972C19.397 20.3209 19.385 20.3406 19.377 20.3406C19.3676 20.3406 19.3569 20.3617 19.3529 20.3868C19.3489 20.4131 19.3383 20.4342 19.3289 20.4342C19.3209 20.4342 19.3103 20.4513 19.3063 20.4737C19.3009 20.4948 19.2929 20.512 19.2863 20.512C19.2796 20.512 19.2636 20.5436 19.2502 20.5831C19.2369 20.6213 19.2209 20.653 19.2142 20.653C19.2089 20.653 19.2036 20.6635 19.2036 20.6767C19.2036 20.6899 19.1942 20.7083 19.1835 20.7202C19.1729 20.7307 19.1422 20.7808 19.1155 20.8296C19.0902 20.8783 19.0635 20.9192 19.0568 20.9192C19.0502 20.9192 19.0448 20.9271 19.0448 20.9376C19.0462 20.9482 19.0315 20.9745 19.0128 20.9969C18.9955 21.018 18.9808 21.0404 18.9808 21.047C18.9808 21.0536 18.9421 21.1155 18.8941 21.184C18.8474 21.2526 18.8074 21.3158 18.8074 21.3251C18.8074 21.333 18.8007 21.3409 18.7914 21.3409C18.7834 21.3409 18.7514 21.3778 18.722 21.4226C18.6927 21.4674 18.654 21.5214 18.6353 21.5438C18.618 21.5649 18.5833 21.6071 18.5593 21.6361C18.5353 21.6651 18.5046 21.7006 18.4913 21.7151C18.478 21.7283 18.4459 21.7678 18.4206 21.8008C18.3939 21.8351 18.3379 21.8983 18.2939 21.9431C18.2499 21.9866 18.1752 22.0644 18.1272 22.1144C18.0778 22.1658 17.9778 22.262 17.9057 22.3279C17.8324 22.3951 17.7564 22.461 17.7377 22.4768C17.719 22.4913 17.675 22.5282 17.6376 22.5585C17.6016 22.5889 17.5523 22.6297 17.5296 22.6495C17.5069 22.6692 17.4802 22.6903 17.4722 22.6969C17.4629 22.7035 17.4162 22.7365 17.3682 22.7681C17.3215 22.801 17.2748 22.8353 17.2655 22.8458C17.2562 22.8551 17.2348 22.8722 17.2188 22.8827C17.2015 22.8933 17.1655 22.913 17.1401 22.9275C17.1134 22.942 17.0654 22.9737 17.0334 22.9987C17.0001 23.0224 16.9681 23.0422 16.9614 23.0422C16.9547 23.0422 16.932 23.0567 16.9107 23.0738C16.888 23.0923 16.8614 23.1068 16.8507 23.1054C16.84 23.1054 16.832 23.1107 16.832 23.1173C16.832 23.1239 16.7907 23.1503 16.7413 23.1753C16.6906 23.2003 16.6399 23.2306 16.6279 23.2412C16.6173 23.253 16.5973 23.2623 16.5852 23.2623C16.5732 23.2623 16.5626 23.2675 16.5626 23.2741C16.5626 23.2794 16.5306 23.2952 16.4919 23.3084C16.4519 23.3216 16.4199 23.3374 16.4199 23.344C16.4199 23.3506 16.4025 23.3585 16.3812 23.3637C16.3585 23.3677 16.3412 23.3782 16.3412 23.3861C16.3412 23.3954 16.3198 23.4059 16.2931 23.4099C16.2678 23.4138 16.2465 23.4244 16.2465 23.4336C16.2465 23.4428 16.2264 23.4534 16.2024 23.4586C16.1784 23.4639 16.1291 23.481 16.0917 23.4968C16.0557 23.514 16.0184 23.5272 16.009 23.5272C16.001 23.5272 15.993 23.5337 15.993 23.543C15.993 23.5522 15.9824 23.5588 15.969 23.5588C15.957 23.5588 15.9143 23.5733 15.8743 23.5904C15.8356 23.6075 15.7823 23.626 15.7556 23.6326C15.7289 23.6392 15.7076 23.6497 15.7089 23.6563C15.7089 23.6629 15.6769 23.6708 15.6369 23.6761C15.5982 23.68 15.5662 23.6906 15.5662 23.6998C15.5662 23.7077 15.5195 23.7235 15.4635 23.734C15.4061 23.7446 15.3608 23.7591 15.3608 23.7657C15.3608 23.7723 15.3288 23.7802 15.2901 23.7854C15.2501 23.7894 15.2154 23.7999 15.2101 23.8092C15.2061 23.8171 15.1647 23.8289 15.1194 23.8342C15.074 23.8395 15.026 23.85 15.0127 23.8566C14.9993 23.8632 14.946 23.8764 14.894 23.8856C14.8419 23.8948 14.7806 23.9027 14.7566 23.9027C14.7326 23.9027 14.7126 23.9093 14.7126 23.9172C14.7126 23.9265 14.6579 23.937 14.5898 23.9423C14.5232 23.9475 14.4551 23.9541 14.4391 23.9581C14.4138 23.9647 14.4124 23.767 14.4124 15.9589L16.0437 14.3472C17.5283 12.8804 17.6777 12.7368 17.707 12.7526Z" fill="black"/>
<path d="M13.5668 2.00437C13.5641 2.03732 13.4868 2.25344 13.3961 2.48406C13.304 2.71468 13.1853 3.08631 13.1293 3.31034C13.0746 3.53437 12.9506 4.07336 12.8545 4.50825C12.7585 4.94313 12.6598 5.32003 12.6358 5.34639C12.6064 5.3767 12.4864 5.29104 12.2983 5.10654C12.1383 4.9484 11.9529 4.71119 11.8875 4.57941C11.8208 4.44763 11.7395 4.22623 11.7061 4.08786C11.6741 3.94949 11.6301 3.83616 11.6101 3.83616C11.5901 3.83616 11.5741 4.18274 11.5741 4.60313C11.5741 5.02484 11.5621 5.37011 11.5487 5.37011C11.5354 5.37011 11.422 5.29104 11.2953 5.19484C11.1686 5.09863 10.9005 4.94313 10.7004 4.84825C10.3456 4.67957 10.3243 4.67561 9.75472 4.67561C9.4346 4.67561 9.08647 4.70197 8.97976 4.73228C8.87306 4.76391 8.67031 4.87592 8.53026 4.98398C8.39154 5.09073 8.28217 5.18957 8.28884 5.20143C8.29551 5.2146 8.39821 5.18957 8.51826 5.14476C8.721 5.07228 8.75434 5.07228 8.97976 5.14476C9.11314 5.18693 9.3639 5.31212 9.5373 5.4215C9.7107 5.53088 9.91478 5.67716 9.98947 5.74701C10.0655 5.81553 10.1722 5.95918 10.2282 6.0646C10.2829 6.17003 10.3576 6.36375 10.3936 6.49553C10.431 6.62732 10.471 6.96205 10.4843 7.23879L10.5083 7.7422C10.3123 7.11096 10.2162 6.87375 10.1709 6.80786C10.1242 6.74197 10.0001 6.63522 9.8961 6.57065C9.74405 6.47708 9.62534 6.45073 9.29455 6.43623C8.96509 6.42174 8.84905 6.43491 8.71433 6.50476C8.62096 6.5522 8.46357 6.6998 8.36353 6.83158C8.2635 6.96336 8.06209 7.30863 7.91403 7.59856C7.76731 7.88716 7.64727 8.1415 7.64593 8.16127C7.64593 8.18104 7.7393 8.1046 7.85268 7.99259C7.96605 7.88057 8.23815 7.69739 8.45824 7.58538C8.721 7.45228 8.92107 7.38243 9.03978 7.38243C9.13982 7.38375 9.2492 7.39956 9.28121 7.41933C9.31455 7.43778 9.3639 7.53003 9.39192 7.62228C9.41993 7.71453 9.46127 8.10197 9.48395 8.48414C9.51196 8.93879 9.55197 9.22871 9.59999 9.32228C9.64001 9.40135 9.73604 9.52259 9.81207 9.59243C9.88677 9.66228 10.0148 9.75057 10.0948 9.78879C10.1749 9.827 10.2189 9.87181 10.1922 9.88631C10.1655 9.9008 10.0388 9.87708 9.91211 9.83359C9.78539 9.79011 9.60533 9.6939 9.51196 9.62142C9.41859 9.54894 9.25586 9.36049 9.14916 9.20235C9.04245 9.04421 8.90107 8.88344 8.83438 8.8439C8.72233 8.77801 8.69832 8.78065 8.53426 8.87949C8.43556 8.93879 8.23949 9.13251 8.0981 9.31042C7.95538 9.48832 7.83934 9.66623 7.83934 9.70576C7.83934 9.76375 7.88469 9.75584 8.07009 9.66359C8.19681 9.60034 8.37687 9.52786 8.47024 9.50282C8.56894 9.47514 8.68632 9.47383 8.74901 9.49755C8.8237 9.52522 8.88906 9.62406 8.95575 9.81383C9.01044 9.96538 9.08513 10.1749 9.12248 10.2803C9.15983 10.3858 9.2572 10.5373 9.33723 10.6164C9.41859 10.6955 9.72937 10.8892 10.0282 11.0473C10.3269 11.2055 10.5817 11.3675 10.5964 11.4071C10.6177 11.4664 10.5857 11.473 10.407 11.444C10.2882 11.4255 9.87476 11.2582 9.48795 11.0724C9.02778 10.8523 8.72634 10.735 8.61563 10.735H8.44623C8.49558 11.162 8.58228 11.502 8.67165 11.7655L8.83438 12.2452C8.85572 11.639 8.87706 11.5441 8.93041 11.5257C8.97043 11.5125 9.08513 11.5613 9.18517 11.6324C9.28521 11.7049 9.56398 11.9342 9.80407 12.1424C10.0442 12.3506 10.3123 12.5562 10.4016 12.5984C10.551 12.6709 10.5777 12.6696 10.7898 12.5879C10.9138 12.5404 11.0645 12.4917 11.1246 12.4811C11.1912 12.4679 11.2339 12.4837 11.2353 12.5206C11.2353 12.5536 11.1806 12.7157 11.1139 12.8791C11.0472 13.0438 11.0032 13.227 11.0165 13.2863C11.0299 13.3456 11.1166 13.4866 11.2099 13.5986C11.3033 13.7106 11.402 13.8016 11.4287 13.8016C11.4553 13.8016 11.4767 13.7423 11.4767 13.6698C11.478 13.5973 11.4887 13.4906 11.502 13.4313C11.514 13.372 11.5527 13.3232 11.5861 13.3219C11.6194 13.3219 11.7368 13.4128 11.8462 13.5261C11.9555 13.6382 12.2837 14.0282 12.5731 14.3933C12.8639 14.7583 13.1493 15.1247 13.208 15.2077C13.268 15.2907 13.352 15.5095 13.3974 15.694C13.4427 15.8785 13.4894 16.0617 13.5028 16.1012C13.5148 16.1407 13.5535 16.0327 13.5881 15.8613C13.6215 15.69 13.6735 15.491 13.7028 15.4186C13.7322 15.3461 14.043 14.9257 14.3924 14.4842C14.7432 14.0427 15.1087 13.6013 15.2047 13.5011C15.3008 13.4023 15.4075 13.3219 15.4408 13.3219C15.4742 13.3219 15.5115 13.3548 15.5249 13.3944C15.5382 13.4339 15.5502 13.542 15.5502 13.6342C15.5502 13.7265 15.5662 13.8029 15.5862 13.8042C15.6062 13.8055 15.7009 13.7251 15.7956 13.625C15.8903 13.5248 15.9864 13.3891 16.0064 13.3232C16.033 13.2375 16.0037 13.1031 15.9063 12.8554C15.8303 12.6643 15.785 12.4917 15.8063 12.4719C15.8276 12.4521 15.9157 12.4653 16.001 12.5022C16.0864 12.5378 16.2318 12.5905 16.3252 12.6182C16.4745 12.6643 16.5212 12.6551 16.7133 12.543C16.8333 12.4745 17.1388 12.2334 17.3922 12.0093C17.6456 11.7853 17.9017 11.5731 17.9631 11.5402C18.0525 11.4901 18.0831 11.4901 18.1325 11.5415C18.1712 11.581 18.1885 11.726 18.1818 11.9487L18.1712 12.2927C18.2859 12.033 18.3739 11.7748 18.4393 11.5507C18.5046 11.3267 18.558 11.0513 18.5566 10.9393C18.5566 10.7416 18.5513 10.7363 18.3979 10.7363C18.3032 10.7376 17.9604 10.872 17.5376 11.0737C17.1508 11.2582 16.7386 11.4255 16.6199 11.444C16.4519 11.4703 16.4092 11.4651 16.4265 11.415C16.4372 11.3794 16.6866 11.2252 16.9801 11.0724C17.2735 10.9182 17.591 10.7205 17.6857 10.6322C17.8164 10.5123 17.8924 10.3713 17.9938 10.0655C18.0725 9.827 18.1765 9.61352 18.2459 9.55026C18.3552 9.44879 18.3739 9.44615 18.5687 9.50809C18.682 9.54367 18.8554 9.61352 18.9555 9.66359C19.0542 9.71235 19.1529 9.73739 19.1729 9.71762C19.1942 9.69786 19.1235 9.55948 19.0168 9.41057C18.9101 9.26166 18.7247 9.05607 18.6047 8.9546C18.4846 8.85181 18.3699 8.76879 18.3499 8.77011C18.3299 8.77142 18.2699 8.79383 18.2165 8.82018C18.1632 8.84654 18.0018 9.03499 17.8577 9.23925C17.6443 9.54235 17.5496 9.63328 17.3375 9.73607C17.1935 9.80592 17.0281 9.87576 16.9681 9.89158C16.908 9.90739 16.8587 9.90476 16.8574 9.88499C16.856 9.86522 16.9561 9.78483 17.0788 9.70576C17.2015 9.62669 17.3482 9.487 17.4042 9.39476C17.4883 9.25507 17.5123 9.10352 17.5483 8.48414C17.579 7.95569 17.615 7.69344 17.6737 7.57352C17.7443 7.42856 17.7817 7.40484 17.9498 7.39166C18.0565 7.38375 18.2099 7.40352 18.2899 7.43646C18.3699 7.46809 18.5767 7.57615 18.7501 7.67499C18.9235 7.77515 19.1195 7.9122 19.1862 7.97941C19.2529 8.04794 19.3236 8.10328 19.3436 8.10197C19.3636 8.10197 19.3009 7.94515 19.2049 7.75406C19.1089 7.56297 18.9528 7.27701 18.8581 7.11887C18.7634 6.96073 18.63 6.76964 18.5606 6.69321C18.4913 6.61809 18.3632 6.52584 18.2779 6.49026C18.1912 6.45336 17.9991 6.42437 17.8524 6.42437C17.7057 6.42437 17.4829 6.45073 17.3562 6.48236C17.2135 6.51794 17.0654 6.60096 16.9681 6.69848C16.856 6.81049 16.768 6.98313 16.6639 7.29809L16.5186 7.7422C16.5506 7.07274 16.5986 6.71825 16.6453 6.52057C16.696 6.30577 16.7907 6.07383 16.88 5.94732C16.9654 5.82344 17.1828 5.6284 17.3922 5.48739C17.5923 5.35166 17.8817 5.20011 18.0365 5.15003C18.2632 5.07623 18.3432 5.06964 18.4486 5.11313C18.5206 5.14212 18.6233 5.18429 18.6767 5.20406C18.7621 5.23701 18.7581 5.22515 18.6527 5.1105C18.586 5.03802 18.4553 4.93391 18.3619 4.87856C18.2685 4.82321 18.0831 4.74941 17.9498 4.71515C17.8164 4.68088 17.5323 4.65321 17.3202 4.65321C17.1068 4.65321 16.8227 4.68088 16.6893 4.71515C16.5559 4.75073 16.3158 4.84693 16.1558 4.92995C15.9957 5.01298 15.7396 5.18957 15.5862 5.32135C15.4328 5.45313 15.2968 5.56119 15.2834 5.56119C15.2701 5.56119 15.2728 5.42677 15.2888 5.26205C15.3061 5.09732 15.3048 4.7046 15.2874 4.38833C15.2688 4.07205 15.2448 3.82429 15.2327 3.83747C15.2207 3.85065 15.1754 3.99034 15.1327 4.14848C15.09 4.30662 15.0047 4.53329 14.9433 4.65189C14.8806 4.7705 14.7312 4.96422 14.6098 5.08282C14.4871 5.20143 14.3791 5.28708 14.3684 5.27391C14.3564 5.26073 14.2457 4.80871 14.1217 4.2684C13.9976 3.72809 13.8616 3.16802 13.8189 3.02306C13.7749 2.87809 13.7028 2.57631 13.6562 2.35228C13.6108 2.12825 13.5695 1.97143 13.5668 2.00437Z" fill="black"/>
<path d="M53.1639 11L54.7489 7.5H55.2439L56.8339 11H56.3089L54.8939 7.78H55.0939L53.6789 11H53.1639ZM53.8389 10.125L53.9739 9.725H55.9439L56.0889 10.125H53.8389Z" fill="black"/>
<path d="M28.2917 17.07C28.0917 17.07 27.9001 17.0533 27.7167 17.02C27.5334 16.99 27.3667 16.9467 27.2167 16.89C27.0667 16.83 26.9384 16.765 26.8317 16.695L27.2217 15.955C27.3417 16.0283 27.4651 16.0917 27.5917 16.145C27.7217 16.195 27.8534 16.2333 27.9867 16.26C28.1201 16.2867 28.2534 16.3 28.3867 16.3C28.5134 16.3 28.6217 16.2883 28.7117 16.265C28.8017 16.2383 28.8701 16.2017 28.9167 16.155C28.9634 16.1083 28.9867 16.0533 28.9867 15.99C28.9867 15.92 28.9551 15.865 28.8917 15.825C28.8317 15.7817 28.7517 15.745 28.6517 15.715C28.5517 15.685 28.4401 15.655 28.3167 15.625C28.1967 15.5917 28.0751 15.5533 27.9517 15.51C27.8317 15.4633 27.7217 15.4067 27.6217 15.34C27.5217 15.27 27.4401 15.1817 27.3767 15.075C27.3167 14.9683 27.2867 14.8367 27.2867 14.68C27.2867 14.4267 27.3551 14.2067 27.4917 14.02C27.6284 13.8333 27.8217 13.6883 28.0717 13.585C28.3251 13.4817 28.6234 13.43 28.9667 13.43C29.2167 13.43 29.4501 13.4567 29.6667 13.51C29.8834 13.56 30.0701 13.6333 30.2267 13.73L29.8667 14.465C29.7301 14.3783 29.5784 14.3133 29.4117 14.27C29.2484 14.2233 29.0801 14.2 28.9067 14.2C28.7734 14.2 28.6584 14.215 28.5617 14.245C28.4684 14.275 28.3967 14.3167 28.3467 14.37C28.3001 14.42 28.2767 14.4767 28.2767 14.54C28.2767 14.6067 28.3067 14.6617 28.3667 14.705C28.4267 14.7483 28.5067 14.785 28.6067 14.815C28.7101 14.845 28.8217 14.8767 28.9417 14.91C29.0651 14.94 29.1867 14.9767 29.3067 15.02C29.4267 15.06 29.5384 15.115 29.6417 15.185C29.7451 15.2517 29.8267 15.3367 29.8867 15.44C29.9467 15.5433 29.9767 15.6717 29.9767 15.825C29.9767 16.075 29.9084 16.2933 29.7717 16.48C29.6351 16.6667 29.4401 16.8117 29.1867 16.915C28.9334 17.0183 28.6351 17.07 28.2917 17.07Z" fill="black"/>
<path d="M30.224 17L30.924 13.5H31.739L33.154 15.84L32.814 15.83L33.279 13.5H34.249L33.549 17H32.734L31.324 14.66L31.659 14.67L31.194 17H30.224Z" fill="black"/>
<path d="M36.1424 17.07C35.7824 17.07 35.4724 17.005 35.2124 16.875C34.9524 16.7417 34.7524 16.56 34.6124 16.33C34.4724 16.1 34.4024 15.8333 34.4024 15.53C34.4024 15.2233 34.4557 14.9433 34.5624 14.69C34.669 14.4333 34.819 14.2117 35.0124 14.025C35.2057 13.835 35.4357 13.6883 35.7024 13.585C35.9724 13.4817 36.2674 13.43 36.5874 13.43C36.9474 13.43 37.2574 13.4967 37.5174 13.63C37.7774 13.76 37.9774 13.94 38.1174 14.17C38.2574 14.4 38.3274 14.6667 38.3274 14.97C38.3274 15.2767 38.274 15.5583 38.1674 15.815C38.0607 16.0683 37.9107 16.29 37.7174 16.48C37.524 16.6667 37.2924 16.8117 37.0224 16.915C36.7557 17.0183 36.4624 17.07 36.1424 17.07ZM36.2274 16.25C36.4007 16.25 36.554 16.2183 36.6874 16.155C36.824 16.0917 36.939 16.0033 37.0324 15.89C37.129 15.7733 37.2024 15.6417 37.2524 15.495C37.3024 15.3483 37.3274 15.1933 37.3274 15.03C37.3274 14.8733 37.294 14.7367 37.2274 14.62C37.164 14.5033 37.0707 14.4133 36.9474 14.35C36.8274 14.2833 36.679 14.25 36.5024 14.25C36.3324 14.25 36.179 14.2817 36.0424 14.345C35.9057 14.4083 35.789 14.4983 35.6924 14.615C35.599 14.7283 35.5274 14.8583 35.4774 15.005C35.4274 15.1517 35.4024 15.3067 35.4024 15.47C35.4024 15.6233 35.434 15.76 35.4974 15.88C35.564 15.9967 35.6574 16.0883 35.7774 16.155C35.9007 16.2183 36.0507 16.25 36.2274 16.25Z" fill="black"/>
<path d="M39.2237 17L38.7937 13.5H39.7687L40.1337 16.53H39.6187L41.2187 13.5H42.1337L42.4687 16.53H41.9837L43.5737 13.5H44.5537L42.7187 17H41.6587L41.3487 14.425H41.6487L40.2887 17H39.2237Z" fill="black"/>
<path d="M44.2084 17L44.9084 13.5H46.6784C47.0751 13.5 47.3768 13.5717 47.5834 13.715C47.7901 13.855 47.8934 14.0567 47.8934 14.32C47.8934 14.5367 47.8334 14.72 47.7134 14.87C47.5934 15.02 47.4318 15.135 47.2284 15.215C47.0251 15.2917 46.7968 15.33 46.5434 15.33L46.6834 15.09C47.0068 15.09 47.2634 15.16 47.4534 15.3C47.6434 15.44 47.7384 15.6367 47.7384 15.89C47.7384 16.1433 47.6668 16.3517 47.5234 16.515C47.3834 16.6783 47.1918 16.8 46.9484 16.88C46.7084 16.96 46.4368 17 46.1334 17H44.2084ZM45.3284 16.285H46.1884C46.3618 16.285 46.4984 16.25 46.5984 16.18C46.7018 16.11 46.7534 16.0067 46.7534 15.87C46.7534 15.7667 46.7151 15.6917 46.6384 15.645C46.5618 15.5983 46.4634 15.575 46.3434 15.575H45.3884L45.5234 14.89H46.3184C46.4351 14.89 46.5334 14.875 46.6134 14.845C46.6968 14.815 46.7584 14.77 46.7984 14.71C46.8384 14.65 46.8584 14.5767 46.8584 14.49C46.8584 14.3933 46.8218 14.3233 46.7484 14.28C46.6751 14.2367 46.5734 14.215 46.4434 14.215H45.7434L45.3284 16.285Z" fill="black"/>
<path d="M47.6312 17L49.8762 13.5H50.8512L51.6962 17H50.7112L50.0862 13.97H50.4762L48.6762 17H47.6312ZM48.6112 16.32L49.0112 15.59H50.7212L50.8312 16.32H48.6112Z" fill="black"/>
<path d="M51.9819 17L52.6819 13.5H53.6719L53.1319 16.215H54.8019L54.6419 17H51.9819Z" fill="black"/>
<path d="M55.0336 17L55.7336 13.5H56.7236L56.1836 16.215H57.8536L57.6936 17H55.0336Z" fill="black"/>
<path d="M57.6996 17L59.9446 13.5H60.9196L61.7646 17H60.7796L60.1546 13.97H60.5446L58.7446 17H57.6996ZM58.6796 16.32L59.0796 15.59H60.7896L60.8996 16.32H58.6796Z" fill="black"/>
<path d="M63.3552 17.07C63.1552 17.07 62.9635 17.0533 62.7802 17.02C62.5969 16.99 62.4302 16.9467 62.2802 16.89C62.1302 16.83 62.0019 16.765 61.8952 16.695L62.2852 15.955C62.4052 16.0283 62.5285 16.0917 62.6552 16.145C62.7852 16.195 62.9169 16.2333 63.0502 16.26C63.1836 16.2867 63.3169 16.3 63.4502 16.3C63.5769 16.3 63.6852 16.2883 63.7752 16.265C63.8652 16.2383 63.9336 16.2017 63.9802 16.155C64.0269 16.1083 64.0502 16.0533 64.0502 15.99C64.0502 15.92 64.0186 15.865 63.9552 15.825C63.8952 15.7817 63.8152 15.745 63.7152 15.715C63.6152 15.685 63.5036 15.655 63.3802 15.625C63.2602 15.5917 63.1386 15.5533 63.0152 15.51C62.8952 15.4633 62.7852 15.4067 62.6852 15.34C62.5852 15.27 62.5035 15.1817 62.4402 15.075C62.3802 14.9683 62.3502 14.8367 62.3502 14.68C62.3502 14.4267 62.4186 14.2067 62.5552 14.02C62.6919 13.8333 62.8852 13.6883 63.1352 13.585C63.3886 13.4817 63.6869 13.43 64.0302 13.43C64.2802 13.43 64.5136 13.4567 64.7302 13.51C64.9469 13.56 65.1336 13.6333 65.2902 13.73L64.9302 14.465C64.7936 14.3783 64.6419 14.3133 64.4752 14.27C64.3119 14.2233 64.1436 14.2 63.9702 14.2C63.8369 14.2 63.7219 14.215 63.6252 14.245C63.5319 14.275 63.4602 14.3167 63.4102 14.37C63.3636 14.42 63.3402 14.4767 63.3402 14.54C63.3402 14.6067 63.3702 14.6617 63.4302 14.705C63.4902 14.7483 63.5702 14.785 63.6702 14.815C63.7736 14.845 63.8852 14.8767 64.0052 14.91C64.1286 14.94 64.2502 14.9767 64.3702 15.02C64.4902 15.06 64.6019 15.115 64.7052 15.185C64.8086 15.2517 64.8902 15.3367 64.9502 15.44C65.0102 15.5433 65.0402 15.6717 65.0402 15.825C65.0402 16.075 64.9719 16.2933 64.8352 16.48C64.6985 16.6667 64.5036 16.8117 64.2502 16.915C63.9969 17.0183 63.6986 17.07 63.3552 17.07Z" fill="black"/>
<path d="M65.2875 17L65.9875 13.5H66.7925L67.7575 15.885H67.3325L69.2025 13.5H70.0475L69.3575 17H68.4425L68.8575 14.88L69.0225 14.875L67.6375 16.655H67.2025L66.4475 14.87L66.6225 14.885L66.1975 17H65.2875Z" fill="black"/>
<path d="M71.393 14.855H73.018L72.873 15.595H71.248L71.393 14.855ZM71.188 16.235H73.023L72.863 17H70.058L70.758 13.5H73.498L73.343 14.265H71.578L71.188 16.235Z" fill="black"/>
<path d="M73.4174 17L74.1174 13.5H75.6374C76.0041 13.5 76.3174 13.56 76.5774 13.68C76.8407 13.8 77.0424 13.97 77.1824 14.19C77.3224 14.4067 77.3924 14.6667 77.3924 14.97C77.3924 15.28 77.3391 15.56 77.2324 15.81C77.1257 16.0567 76.9757 16.27 76.7824 16.45C76.5891 16.6267 76.3591 16.7633 76.0924 16.86C75.8257 16.9533 75.5307 17 75.2074 17H73.4174ZM74.5674 16.21H75.2374C75.4874 16.21 75.6974 16.1583 75.8674 16.055C76.0374 15.9517 76.1674 15.8117 76.2574 15.635C76.3474 15.455 76.3924 15.2533 76.3924 15.03C76.3924 14.8733 76.3591 14.74 76.2924 14.63C76.2291 14.52 76.1324 14.4367 76.0024 14.38C75.8757 14.32 75.7174 14.29 75.5274 14.29H74.9474L74.5674 16.21Z" fill="black"/>
<path d="M77.5483 17L78.2483 13.5H79.2383L78.5383 17H77.5483Z" fill="black"/>
<path d="M78.8226 17L81.0676 13.5H82.0426L82.8876 17H81.9026L81.2776 13.97H81.6676L79.8676 17H78.8226ZM79.8026 16.32L80.2026 15.59H81.9126L82.0226 16.32H79.8026Z" fill="black"/>
<path d="M47.8512 23.03C47.6312 23.03 47.4295 22.98 47.2462 22.88C47.0662 22.7767 46.9212 22.625 46.8112 22.425C46.7045 22.225 46.6512 21.975 46.6512 21.675C46.6512 21.375 46.7029 21.125 46.8062 20.925C46.9129 20.725 47.0562 20.575 47.2362 20.475C47.4195 20.375 47.6245 20.325 47.8512 20.325C48.1112 20.325 48.3412 20.3817 48.5412 20.495C48.7412 20.6083 48.8995 20.7667 49.0162 20.97C49.1329 21.17 49.1912 21.405 49.1912 21.675C49.1912 21.945 49.1329 22.1817 49.0162 22.385C48.8995 22.5883 48.7412 22.7467 48.5412 22.86C48.3412 22.9733 48.1112 23.03 47.8512 23.03ZM46.4462 23.97V20.35H46.9062V21.065L46.8762 21.68L46.9262 22.295V23.97H46.4462ZM47.8112 22.61C47.9812 22.61 48.1329 22.5717 48.2662 22.495C48.4029 22.4183 48.5095 22.31 48.5862 22.17C48.6662 22.0267 48.7062 21.8617 48.7062 21.675C48.7062 21.485 48.6662 21.3217 48.5862 21.185C48.5095 21.045 48.4029 20.9367 48.2662 20.86C48.1329 20.7833 47.9812 20.745 47.8112 20.745C47.6445 20.745 47.4929 20.7833 47.3562 20.86C47.2229 20.9367 47.1162 21.045 47.0362 21.185C46.9595 21.3217 46.9212 21.485 46.9212 21.675C46.9212 21.8617 46.9595 22.0267 47.0362 22.17C47.1162 22.31 47.2229 22.4183 47.3562 22.495C47.4929 22.5717 47.6445 22.61 47.8112 22.61Z" fill="black"/>
<path d="M49.8544 23V20.35H50.3144V21.07L50.2694 20.89C50.3428 20.7067 50.4661 20.5667 50.6394 20.47C50.8128 20.3733 51.0261 20.325 51.2794 20.325V20.79C51.2594 20.7867 51.2394 20.785 51.2194 20.785C51.2028 20.785 51.1861 20.785 51.1694 20.785C50.9127 20.785 50.7094 20.8617 50.5594 21.015C50.4094 21.1683 50.3344 21.39 50.3344 21.68V23H49.8544Z" fill="black"/>
<path d="M52.9816 23.03C52.7149 23.03 52.4783 22.9717 52.2716 22.855C52.0649 22.7383 51.9016 22.5783 51.7816 22.375C51.6616 22.1683 51.6016 21.935 51.6016 21.675C51.6016 21.4117 51.6616 21.1783 51.7816 20.975C51.9016 20.7717 52.0649 20.6133 52.2716 20.5C52.4783 20.3833 52.7149 20.325 52.9816 20.325C53.2449 20.325 53.4799 20.3833 53.6866 20.5C53.8966 20.6133 54.0599 20.7717 54.1766 20.975C54.2966 21.175 54.3566 21.4083 54.3566 21.675C54.3566 21.9383 54.2966 22.1717 54.1766 22.375C54.0599 22.5783 53.8966 22.7383 53.6866 22.855C53.4799 22.9717 53.2449 23.03 52.9816 23.03ZM52.9816 22.61C53.1516 22.61 53.3033 22.5717 53.4366 22.495C53.5733 22.4183 53.6799 22.31 53.7566 22.17C53.8333 22.0267 53.8716 21.8617 53.8716 21.675C53.8716 21.485 53.8333 21.3217 53.7566 21.185C53.6799 21.045 53.5733 20.9367 53.4366 20.86C53.3033 20.7833 53.1516 20.745 52.9816 20.745C52.8116 20.745 52.6599 20.7833 52.5266 20.86C52.3933 20.9367 52.2866 21.045 52.2066 21.185C52.1266 21.3217 52.0866 21.485 52.0866 21.675C52.0866 21.8617 52.1266 22.0267 52.2066 22.17C52.2866 22.31 52.3933 22.4183 52.5266 22.495C52.6599 22.5717 52.8116 22.61 52.9816 22.61Z" fill="black"/>
<path d="M54.6804 24C54.5704 24 54.4654 23.9867 54.3654 23.96C54.2621 23.9333 54.1754 23.8933 54.1054 23.84L54.2604 23.47C54.3604 23.5533 54.4904 23.595 54.6504 23.595C54.7771 23.595 54.8738 23.555 54.9404 23.475C55.0104 23.3983 55.0454 23.2833 55.0454 23.13V20.35H55.5254V23.12C55.5254 23.39 55.4521 23.6033 55.3054 23.76C55.1621 23.92 54.9538 24 54.6804 24ZM55.2854 19.84C55.1921 19.84 55.1138 19.81 55.0504 19.75C54.9904 19.69 54.9604 19.6167 54.9604 19.53C54.9604 19.44 54.9904 19.365 55.0504 19.305C55.1138 19.245 55.1921 19.215 55.2854 19.215C55.3788 19.215 55.4554 19.245 55.5154 19.305C55.5788 19.3617 55.6104 19.4333 55.6104 19.52C55.6104 19.61 55.5804 19.6867 55.5204 19.75C55.4604 19.81 55.3821 19.84 55.2854 19.84Z" fill="black"/>
<path d="M57.6213 23.03C57.338 23.03 57.088 22.9717 56.8713 22.855C56.658 22.7383 56.4913 22.5783 56.3713 22.375C56.2547 22.1717 56.1963 21.9383 56.1963 21.675C56.1963 21.4117 56.253 21.1783 56.3663 20.975C56.483 20.7717 56.6413 20.6133 56.8413 20.5C57.0447 20.3833 57.273 20.325 57.5263 20.325C57.783 20.325 58.0097 20.3817 58.2063 20.495C58.403 20.6083 58.5563 20.7683 58.6663 20.975C58.7797 21.1783 58.8363 21.4167 58.8363 21.69C58.8363 21.71 58.8347 21.7333 58.8313 21.76C58.8313 21.7867 58.8297 21.8117 58.8263 21.835H56.5713V21.49H58.5763L58.3813 21.61C58.3847 21.44 58.3497 21.2883 58.2763 21.155C58.203 21.0217 58.1013 20.9183 57.9713 20.845C57.8447 20.7683 57.6963 20.73 57.5263 20.73C57.3597 20.73 57.2113 20.7683 57.0813 20.845C56.9513 20.9183 56.8497 21.0233 56.7763 21.16C56.703 21.2933 56.6663 21.4467 56.6663 21.62V21.7C56.6663 21.8767 56.7063 22.035 56.7863 22.175C56.8697 22.3117 56.9847 22.4183 57.1313 22.495C57.278 22.5717 57.4463 22.61 57.6363 22.61C57.793 22.61 57.9347 22.5833 58.0613 22.53C58.1913 22.4767 58.3047 22.3967 58.4013 22.29L58.6663 22.6C58.5463 22.74 58.3963 22.8467 58.2163 22.92C58.0397 22.9933 57.8413 23.03 57.6213 23.03Z" fill="black"/>
<path d="M60.6579 23.03C60.3879 23.03 60.1462 22.9717 59.9329 22.855C59.7229 22.7383 59.5579 22.5783 59.4379 22.375C59.3179 22.1717 59.2579 21.9383 59.2579 21.675C59.2579 21.4117 59.3179 21.1783 59.4379 20.975C59.5579 20.7717 59.7229 20.6133 59.9329 20.5C60.1462 20.3833 60.3879 20.325 60.6579 20.325C60.8979 20.325 61.1112 20.3733 61.2979 20.47C61.4879 20.5633 61.6345 20.7033 61.7379 20.89L61.3729 21.125C61.2862 20.995 61.1795 20.9 61.0529 20.84C60.9295 20.7767 60.7962 20.745 60.6529 20.745C60.4795 20.745 60.3245 20.7833 60.1879 20.86C60.0512 20.9367 59.9429 21.045 59.8629 21.185C59.7829 21.3217 59.7429 21.485 59.7429 21.675C59.7429 21.865 59.7829 22.03 59.8629 22.17C59.9429 22.31 60.0512 22.4183 60.1879 22.495C60.3245 22.5717 60.4795 22.61 60.6529 22.61C60.7962 22.61 60.9295 22.58 61.0529 22.52C61.1795 22.4567 61.2862 22.36 61.3729 22.23L61.7379 22.46C61.6345 22.6433 61.4879 22.785 61.2979 22.885C61.1112 22.9817 60.8979 23.03 60.6579 23.03Z" fill="black"/>
<path d="M63.3035 23.03C63.0368 23.03 62.8301 22.9583 62.6835 22.815C62.5368 22.6717 62.4635 22.4667 62.4635 22.2V19.77H62.9435V22.18C62.9435 22.3233 62.9785 22.4333 63.0485 22.51C63.1218 22.5867 63.2251 22.625 63.3585 22.625C63.5085 22.625 63.6335 22.5833 63.7335 22.5L63.8835 22.845C63.8101 22.9083 63.7218 22.955 63.6185 22.985C63.5185 23.015 63.4135 23.03 63.3035 23.03ZM62.0135 20.745V20.35H63.7035V20.745H62.0135Z" fill="black"/>
</g>
<defs>
<linearGradient id="paint0_linear_1_2" x1="43.7439" y1="0.412423" x2="44.2709" y2="30.5638" gradientUnits="userSpaceOnUse">
<stop stop-color="white"/>
<stop offset="1" stop-color="#EBEBEB"/>
</linearGradient>
<linearGradient id="paint1_linear_1_2" x1="43.7439" y1="0.412423" x2="44.2709" y2="30.5638" gradientUnits="userSpaceOnUse">
<stop stop-color="#C8C8C8"/>
<stop offset="1" stop-color="#787878"/>
</linearGradient>
<clipPath id="clip0_1_2">
<rect width="88" height="31" fill="white"/>
</clipPath>
</defs>
</svg>
