<svg width="759" height="415" viewBox="0 0 759 415" fill="none" xmlns="http://www.w3.org/2000/svg">
<path d="M19.317 136C-6.94367 168.753 -6.25414 247.414 20.317 280H41.317C20.5167 241.875 17.819 177.836 41.317 136H19.317ZM717.317 136C740.815 177.836 738.117 241.875 717.317 280H738.317C764.888 247.414 765.578 168.753 739.317 136H717.317Z" fill="url(#paint0_linear_1_3)"/>
<path d="M77.317 112C45.0578 147.918 35.0264 251.176 76.317 305H102.317C84.2778 261.4 71.8305 185.644 103.317 112H77.317ZM655.317 112C686.803 185.644 674.356 261.4 656.317 305H682.317C723.608 251.176 713.576 147.918 681.317 112H655.317Z" fill="url(#paint1_linear_1_3)"/>
<path d="M143.317 89C102.044 140.409 94.5996 270.007 144.317 324H181.317C146.049 255.274 137.477 168.73 182.317 89H143.317ZM576.317 89C621.157 168.73 612.585 255.274 577.317 324H614.317C664.034 270.007 656.59 140.409 615.317 89H576.317Z" fill="url(#paint2_linear_1_3)"/>
<path d="M587.317 207.5C587.317 262.532 565.455 315.311 526.542 354.225C487.628 393.138 434.849 415 379.817 415C324.785 415 272.006 393.138 233.092 354.225C194.179 315.311 172.317 262.532 172.317 207.5C172.317 152.468 194.179 99.6891 233.092 60.7753C272.006 21.8615 324.785 0 379.817 0C434.849 0 487.628 21.8615 526.542 60.7753C565.455 99.6891 587.317 152.468 587.317 207.5Z" fill="url(#paint3_radial_1_3)"/>
<path d="M379.817 0C265.218 0 172.317 92.9009 172.317 207.5C172.317 322.099 265.218 415 379.817 415C494.416 415 587.317 322.099 587.317 207.5C587.317 92.9009 494.416 0 379.817 0ZM374.223 10.0625C374.596 10.053 374.975 10.0699 375.348 10.0625V72.5625C341.727 73.5288 311.19 86.7608 288.067 107.938L244.067 63.9375C278.209 31.5946 323.85 11.342 374.223 10.0625ZM385.348 10.0938C435.798 11.614 481.478 32.1663 515.504 64.8125L471.504 108.812C448.745 87.5809 418.6 74.1168 385.348 72.6562V10.0938ZM237.036 70.9062L281.036 114.906C259.4 137.839 245.706 168.331 244.411 202H182.411C183.794 151.17 204.316 105.151 237.036 70.9062ZM522.473 71.8438C554.675 105.986 574.848 151.635 576.223 202H514.223C512.947 168.78 499.61 138.663 478.473 115.844L522.473 71.8438ZM375.348 82.0625V195.219L294.911 114.781C316.239 95.2526 344.386 83.0298 375.348 82.0625ZM385.348 82.125C415.965 83.5788 443.689 96.0433 464.661 115.656L385.348 194.969V82.125ZM287.879 121.75L368.129 202H254.442C255.662 171.035 268.117 142.942 287.879 121.75ZM471.629 122.688C490.895 143.773 503.022 171.485 504.223 202H392.317L471.629 122.688ZM182.379 212H244.411C245.586 245.79 259.225 276.411 280.879 299.438L236.661 343.656C203.957 309.238 183.519 263.019 182.379 212ZM254.411 212H368.317L287.973 292.344C268.149 271.138 255.632 243.019 254.411 212ZM392.129 212H504.192C502.989 242.557 490.847 270.315 471.536 291.406L392.129 212ZM514.223 212H576.254C575.128 262.56 555.037 308.392 522.848 342.719L478.629 298.5C499.779 275.582 513.064 245.332 514.223 212ZM375.348 218.969V331.938C344.43 330.972 316.354 318.761 295.036 299.281L375.348 218.969ZM385.348 219.219L464.567 298.438C443.608 317.983 415.908 330.424 385.348 331.875V219.219ZM471.661 305.531L515.911 349.781C481.839 382.668 436.01 403.38 385.348 404.906V341.844C418.682 340.38 448.883 326.858 471.661 305.531ZM287.911 306.406C311.05 327.665 341.652 340.969 375.348 341.938V404.938C324.335 403.928 278.097 383.456 243.661 350.656L287.911 306.406Z" fill="url(#paint4_radial_1_3)"/>
<path fill-rule="evenodd" clip-rule="evenodd" d="M366.134 48.5114C365.871 48.7742 365.656 49.1184 365.656 49.2763C365.656 49.4346 365.13 50.4279 364.486 51.4836C361.872 55.7759 359.775 62.266 358.536 69.906C357.506 76.2518 357.399 77.5626 357.462 83.0467C357.542 89.9041 357.73 89.6571 354.627 86.7694C350.505 82.9331 346.221 80.258 341.998 78.8834C339.113 77.9445 338.732 77.5936 337.437 74.6816C336.679 72.9793 336.329 73.4404 336.322 76.1479C336.316 78.3731 336.412 78.7552 337.546 80.9938C338.562 83.0011 339.323 85.0953 339.171 85.4693C339.153 85.5139 339.416 86.3578 339.757 87.3448C340.097 88.3314 340.376 89.2543 340.376 89.3953C340.376 90.2613 338.185 88.7567 334.132 85.1072C329.101 80.5773 321.886 76.0434 313.734 72.2906C308.003 69.6517 307.573 69.7268 311.008 72.766C320.177 80.8777 334.949 96.6376 339.944 103.634C340.596 104.548 341.371 105.561 341.667 105.885C341.962 106.209 342.203 106.575 342.203 106.698C342.203 106.822 342.379 107.104 342.593 107.325C343.562 108.321 348.113 115.755 347.89 115.977C347.557 116.309 342.3 112.506 340.008 110.272C338.106 108.42 332.911 102.045 331.055 99.2847C327.014 93.279 320.924 88.6167 314.303 86.4611C310.293 85.1555 309.593 85.5009 312.497 87.3533C313.39 87.9235 314.841 89.2546 315.721 90.3118C316.601 91.3686 318.431 93.4458 319.787 94.9276C324.463 100.035 329.146 105.701 330.994 108.485C331.272 108.903 331.954 109.731 332.511 110.324C333.067 110.918 333.93 111.943 334.427 112.602C334.925 113.262 335.57 114.06 335.861 114.377C336.277 114.829 336.32 115.084 336.061 115.566C335.75 116.146 335.673 116.109 334.663 114.897C332.676 112.511 328.371 110.008 326.244 110.002C325.553 110 324.822 109.591 323.523 108.483C321.609 106.849 320.841 106.658 319.323 107.441C318.605 107.811 318.307 107.837 317.968 107.556C316.816 106.603 317.727 108.077 319.614 110.222C324.798 116.113 328.586 120.833 330.803 124.164C332.124 126.15 333.659 128.374 334.214 129.106C334.769 129.838 335.639 131.323 336.147 132.406C336.654 133.489 337.539 135.042 338.114 135.856C338.688 136.671 339.157 137.463 339.157 137.617C339.157 137.77 339.645 138.797 340.242 139.898C340.838 141 341.233 141.901 341.118 141.901C341.004 141.901 341.099 142.132 341.328 142.415C341.617 142.77 341.628 142.858 341.363 142.699C341.061 142.518 341.053 142.629 341.324 143.223C341.514 143.637 341.891 144.034 342.164 144.105C342.754 144.26 343.619 145.754 343.302 146.07C342.304 147.066 339.651 144.447 337.637 140.479C334.198 133.7 330.379 129.922 323.665 126.658C321.239 125.479 316.923 123.988 316.923 124.33C316.923 124.47 317.048 124.585 317.2 124.585C317.505 124.585 320.267 126.745 322.406 128.656C326.112 131.968 333.12 140.453 332.584 140.98C332.286 141.273 329.493 140.802 328.947 140.367C328.406 139.935 324.23 138.927 324.067 139.189C323.913 139.437 324.14 139.589 326.518 140.83C329.584 142.43 331.456 143.912 335.288 147.773C338.193 150.698 339.067 151.823 338.7 152.162C338.571 152.283 338.404 152.21 338.329 152.001C338.254 151.792 337.922 151.621 337.59 151.621C335.902 151.621 333.844 150.564 332.029 148.762C329.802 146.554 324.997 143.857 319.539 141.752C315.306 140.121 314.691 140.121 316.953 141.753C322.882 146.031 325.76 148.887 324.139 148.887C322.909 148.887 322.259 149.572 322.748 150.353C323.222 151.11 323.929 151.233 323.929 150.558C323.929 149.087 327.75 151.123 329.445 153.498C330.18 154.527 331.208 155.859 331.729 156.457C337.812 163.443 338.278 164.621 333.628 161.266C332.181 160.222 329.646 158.393 327.996 157.201C326.345 156.009 324.378 154.735 323.624 154.369C320.353 152.783 315.452 151.029 314.258 151.018C313.397 151.009 313.963 151.621 315.1 151.926C317.858 152.667 326.013 159.759 327.735 162.912L328.535 164.38L326.46 164.416C322.536 164.484 321.097 165.286 324.287 165.628C325.616 165.771 327.175 166.391 331.044 168.317C337.937 171.748 338.905 172.843 333.983 171.638C331.348 170.994 331.006 170.977 328.016 171.341C326.272 171.554 324.193 171.643 323.397 171.54C321.023 171.231 319.437 171.661 318.708 172.81L318.082 173.797H318.812C319.214 173.797 319.689 173.942 319.867 174.12C320.096 174.349 320.325 174.31 320.649 173.987C321.803 172.836 332.791 177.663 338.316 181.749C341.299 183.954 341.002 184.476 337.583 183.04C332.813 181.038 320.517 179.508 319.261 180.761C318.751 181.269 319.078 181.379 323.051 182.04C330.864 183.34 335.772 184.978 335.846 186.311C335.943 188.065 336.084 188.468 336.891 189.308C338.05 190.514 337.628 190.828 335.35 190.451C331.656 189.839 324.386 190.755 324.386 191.832C324.386 191.934 325.962 192.08 327.888 192.158C335.113 192.449 337.121 194.2 333.657 197.186C332.437 198.237 330.629 201.372 330.629 202.435C330.629 203.625 331.344 203.359 331.543 202.095C331.92 199.703 333.778 198.479 334.741 199.988C335.597 201.328 335.848 201.299 336.789 199.753C337.954 197.84 338.183 197.837 341.199 199.698C344.361 201.649 344.35 201.6 341.944 202.959C340.909 203.544 339.349 204.553 338.476 205.2C337.604 205.848 336.064 206.647 335.055 206.975C331.108 208.257 324.202 215.438 324.977 217.453C325.41 218.579 321.225 225.113 319.859 225.445C319.501 225.532 319.002 226.042 318.751 226.578C318.5 227.113 318.123 227.555 317.913 227.558C317.704 227.562 317.533 227.832 317.533 228.158C317.533 228.485 317.372 229.103 317.175 229.534C316.902 230.132 316.902 230.399 317.175 230.672C317.769 231.264 317.595 231.999 316.133 235.088C314.941 237.608 314.71 238.405 314.575 240.476C314.465 242.134 314.239 243.154 313.859 243.687C313.471 244.234 313.286 245.099 313.245 246.573C313.178 248.945 313.098 249.159 311.634 250.908C310.892 251.793 310.633 252.355 310.753 252.815C310.877 253.286 310.805 253.428 310.497 253.326C310.19 253.225 310.003 252.312 309.832 250.08C309.548 246.385 308.949 243.817 308.371 243.817C307.43 243.817 309.005 253.334 310.231 255.057C310.858 255.939 311.424 258.89 311.744 262.955L312.104 267.512L311.164 269.486C310.646 270.572 310.223 271.926 310.223 272.494C310.223 273.063 309.795 274.43 309.273 275.532C307.717 278.816 307.728 278.738 308.553 280.375C308.964 281.191 309.526 282.046 309.803 282.275C310.694 283.013 311.441 285.235 311.441 287.148C311.441 288.146 311.592 289.561 311.777 290.292C312.104 291.587 312.08 291.667 310.853 293.376L309.593 295.131L309.639 299.548C309.668 302.378 309.821 304.237 310.064 304.724C310.273 305.142 310.538 306.44 310.654 307.61C310.827 309.366 310.995 309.842 311.619 310.344C312.352 310.933 312.374 311.068 312.385 314.9C312.397 319.36 312.67 320.922 313.819 323.102C314.429 324.26 314.635 325.127 314.685 326.748C314.757 329.102 315.444 331.499 317.007 334.853C318.213 337.438 318.698 338.733 319.094 340.417C319.251 341.086 319.711 342.179 320.115 342.848C320.52 343.516 321.135 344.576 321.482 345.202C321.83 345.829 322.291 346.341 322.507 346.341C323.137 346.341 324.348 347.832 325.765 350.353C326.489 351.641 327.777 353.51 328.627 354.505C332.247 358.744 332.31 358.841 331.729 359.264C331.065 359.749 331.593 360.141 332.579 359.894C333.081 359.768 333.481 359.939 334.008 360.503C334.941 361.5 337.167 362.635 338.717 362.903C339.378 363.017 340.604 363.297 341.442 363.526C342.465 363.804 345.796 364.001 351.598 364.126C358.217 364.268 360.527 364.42 361.497 364.775C362.265 365.057 364.019 365.267 365.96 365.31C367.719 365.349 369.569 365.553 370.072 365.764C371.093 366.192 375.029 366.003 376.011 365.479C376.413 365.264 377.009 365.281 377.954 365.533C378.983 365.808 379.681 365.813 380.798 365.556C382.38 365.192 384.576 365.323 385.659 365.846C386.147 366.081 386.977 366.034 388.787 365.671C390.143 365.398 391.558 365.177 391.931 365.179C392.305 365.181 393.612 364.949 394.835 364.664C396.89 364.185 397.161 364.182 398.377 364.632C399.683 365.115 399.716 365.11 402.382 364.042C404.969 363.006 405.127 362.98 406.585 363.353C408.01 363.717 408.132 363.702 408.628 363.091C409.069 362.547 409.48 362.441 411.148 362.441C413.26 362.441 414.261 362.132 415.787 361.009C416.305 360.627 417.143 360.315 417.648 360.315C418.279 360.315 418.92 359.982 419.696 359.252C421.109 357.923 421.86 357.73 423.29 358.325C425.066 359.065 427.38 358.956 427.816 358.112C428.011 357.737 428.444 357.129 428.778 356.762C429.457 356.018 429.349 354.928 428.514 354.094C427.829 353.411 427.608 353.766 428.178 354.634C429.078 356.004 426.26 356.267 424.764 354.953C424.471 354.696 426.748 352.709 427.691 352.399C428.671 352.076 428.703 352.015 428.703 350.418C428.703 349.513 428.821 348.771 428.966 348.771C429.111 348.771 429.556 348.458 429.956 348.074C430.355 347.691 431.299 346.906 432.053 346.328C434.553 344.413 435.614 342.454 435.324 340.29C435.137 338.906 435.603 338.062 436.932 337.377C437.651 337.006 437.936 336.516 438.467 334.737C439.105 332.603 441.601 327.361 442.138 327.03C442.287 326.939 442.412 326.359 442.416 325.742C442.419 325.126 442.83 323.118 443.329 321.28C444.371 317.44 444.399 317.179 443.779 317.179C442.925 317.179 443.14 311.692 444.032 310.732C445.333 309.332 445.748 304.605 445.251 296.826C445.16 295.406 445.107 293.834 445.132 293.332C445.269 290.584 445.09 285.162 444.802 283.339C444.511 281.501 444.531 281.211 444.966 280.968C445.949 280.419 446.977 277.826 446.977 275.894V274.079L445.835 273.985L444.693 273.891L444.638 270.023C444.595 267.069 444.47 265.994 444.105 265.475C443.767 264.993 443.627 264.079 443.627 262.348C443.627 261.002 443.484 258.763 443.309 257.372C443.108 255.773 443.095 254.491 443.274 253.887C444.172 250.85 444.347 249.382 443.961 248.118C443.748 247.423 443.469 245.966 443.34 244.88C442.937 241.483 441.19 236.671 441.19 238.957C441.19 239.588 440.872 239.515 439.896 238.658C439.179 238.029 439.058 237.689 439.058 236.305C439.058 234.575 437.782 231.493 436.207 229.418C435.776 228.85 435.496 228.269 435.585 228.125C435.674 227.982 435.349 226.738 434.862 225.361C434.376 223.984 433.74 222.105 433.449 221.186C432.884 219.404 432.181 218.223 431.87 218.534C431.765 218.637 431.902 219.372 432.173 220.165C432.828 222.083 430.587 222.994 429.625 221.201C429.471 220.914 428.242 219.828 426.893 218.788C423.941 216.51 423.799 216.125 424.862 213.267C426.524 208.793 424.209 205.701 419.455 206.047C418.396 206.125 418.18 206.043 418.099 205.537C418.046 205.205 417.255 204.413 416.34 203.777C414.421 202.441 414.417 202.464 416.765 201.068C421.536 198.234 427.001 196.692 431.325 196.961C432.731 197.049 433.881 197.079 433.881 197.028C433.881 196.804 429.616 195.701 428.094 195.531C423.008 194.963 423.039 194.926 431.847 191.004C433.705 190.176 433.94 189.496 432.27 189.778C428.061 190.489 424.868 191.484 421.763 193.054C420.889 193.495 420.175 193.709 420.175 193.53C420.175 193.35 420.038 193.287 419.87 193.39C419.397 193.682 419.512 193.054 420.007 192.644C420.25 192.443 420.609 191.777 420.806 191.164C421.622 188.619 427.356 185.644 434.717 183.945C437.589 183.283 437.811 182.8 435.303 182.667C434.353 182.617 433.576 182.456 433.576 182.309C433.576 181.621 432.503 181.119 430.609 180.924C427.326 180.584 427.059 180.003 429.921 179.425C434.76 178.448 441.53 175.316 438.803 175.316C438.662 175.316 438.397 174.988 438.214 174.588C437.642 173.334 433.73 171.584 432.053 171.831C430.03 172.13 426.149 173.411 425.317 174.056C424.464 174.717 422.335 175.75 422.17 175.583C420.778 174.173 422.235 172.21 426.564 169.667C429.21 168.113 429.185 168.119 429.422 169.013C429.594 169.66 429.643 169.638 430.365 168.581C431.648 166.707 434.827 165.392 436.663 165.978C437.51 166.248 438.246 166.325 438.493 166.169C438.72 166.026 439.454 165.904 440.124 165.899C441.401 165.889 442.391 165.477 442.022 165.108C441.697 164.784 433.842 164.41 433.117 164.685C432.77 164.816 431.395 165.01 430.061 165.116C428.728 165.222 426.929 165.382 426.064 165.471C424.232 165.659 423.762 165.067 424.544 163.559C425.431 161.849 426.059 161.538 426.876 162.406C427.812 163.4 428.213 163.371 427.944 162.329C427.396 160.202 427.541 159.416 428.859 157.393C429.566 156.307 430.667 154.393 431.305 153.14C432.698 150.404 437.967 144.802 440.505 143.359C442.004 142.507 442.748 141.587 441.571 142.041C438.454 143.244 438.802 142.336 442.582 139.398C445.885 136.832 449.01 135.018 451.359 134.303C453.222 133.736 453.575 133.091 452.023 133.091C448.082 133.091 436.636 137.955 434.481 140.545C434.277 140.789 434.004 140.989 433.875 140.989C433.324 140.989 427.24 147.739 425.246 150.562C424.937 151.001 424.614 151.29 424.53 151.206C424.445 151.122 423.741 151.659 422.966 152.4C422.19 153.142 421.416 153.746 421.246 153.743C421.076 153.741 421.142 153.606 421.393 153.444C421.688 153.254 421.717 153.148 421.475 153.145C421.126 153.141 422.169 150.912 423.021 149.842C423.396 149.37 423.715 148.845 424.638 147.175C424.999 146.522 426.051 145.01 426.976 143.817C427.901 142.622 429.894 139.946 431.405 137.87C432.916 135.793 434.536 133.845 435.006 133.54C435.476 133.235 437.435 131.471 439.359 129.621C450.386 119.016 449.838 119.71 445.852 121.402C438.21 124.645 432.337 128.516 430.315 131.644C427.933 135.328 423.823 140.989 423.531 140.989C422.993 140.989 422.878 140.354 423.226 139.301C423.649 138.024 423.303 137.43 422.056 137.286C420.902 137.153 420.984 136.665 422.705 133.395C423.54 131.808 424.907 129.21 425.741 127.623C426.941 125.339 427.805 124.192 429.884 122.121C431.328 120.682 432.647 119.354 432.814 119.169C433.784 118.098 436.493 116.015 437.415 115.63C438.008 115.383 438.415 115.056 438.32 114.903C437.999 114.385 434.794 115.431 434.794 116.054C434.794 116.573 432.934 117.126 432.663 116.688C432.381 116.234 432.645 115.545 434.174 112.736C437.352 106.902 437.679 106.42 438.998 105.625C440.237 104.879 440.468 104.233 439.497 104.233C438.785 104.233 438.964 103.806 440.856 100.987C442.835 98.0367 444.638 96.0306 445.31 96.0306C445.918 96.0306 446.843 94.5603 446.47 94.1876C446.281 93.9996 445.583 94.3167 444.521 95.0728C443.61 95.7208 442.523 96.3581 442.104 96.489C439.994 97.1485 437.236 99.4943 435.195 102.366C434.406 103.476 433.536 104.547 433.262 104.746C432.542 105.268 429.107 108.882 426.844 111.498C424.036 114.743 423.247 114.584 425.339 111.194C425.849 110.368 426.273 109.591 426.281 109.468C426.314 108.978 435.267 97.1212 438.722 92.9929C439.911 91.5727 442.322 88.5654 444.08 86.3098C445.838 84.0543 447.773 81.6208 448.38 80.902C449.7 79.3394 449.559 79.0496 447.818 79.7501C440.107 82.8523 436.727 85.7828 430.791 94.5117C428.532 97.8332 423.988 103.849 423.218 104.536C423.124 104.62 422.504 105.372 421.839 106.207C421.175 107.042 420.559 107.794 420.47 107.878C420.381 107.961 419.653 108.909 418.852 109.984C417.208 112.189 414.334 115.468 414.043 115.471C413.938 115.472 413.768 113.319 413.667 110.688C413.565 108.056 413.401 104.605 413.301 103.017L413.12 100.132L414.7 96.3344C415.569 94.2459 416.54 91.7316 416.858 90.7471C417.176 89.7625 418.052 87.6598 418.805 86.0738C419.558 84.4881 420.175 82.8866 420.175 82.5148C420.175 81.8124 420.536 81.0937 424.067 74.7664C426.35 70.6767 426.412 70.5983 430.158 67.1447C431.867 65.569 433.07 64.7166 433.955 64.4532C436.981 63.5528 438.024 62.3116 435.755 62.3116C426.375 62.3116 404.848 79.1775 397.177 92.5372C394.322 97.5094 394.26 97.5176 393.217 93.0688C391.488 85.6935 389.875 80.5211 387.416 74.4626C385.385 69.4594 385.238 69.1581 384.095 67.6647C383.502 66.8895 383.016 66.1477 383.016 66.0158C383.016 65.8843 382.4 64.8399 381.646 63.6953C380.892 62.5507 380.275 61.506 380.275 61.3739C380.275 61.242 379.842 60.3395 379.312 59.3686C375.201 51.8338 368.411 46.2401 366.134 48.5114ZM322.599 109.409C323.555 111.088 323.545 111.096 321.873 109.972C319.331 108.264 319.219 108.126 320.023 107.697C320.917 107.22 321.618 107.686 322.599 109.409ZM420.227 145.605C417.64 149.409 417.597 149.223 419.928 144.306L421.845 140.263L422.04 141.458C422.22 142.565 422.087 142.869 420.227 145.605ZM422.667 141.967C422.449 142.184 422.307 142.202 422.307 142.012C422.307 141.607 422.667 141.247 422.87 141.45C422.957 141.536 422.865 141.769 422.667 141.967ZM321.187 167.418C321.187 167.585 321.325 167.721 321.492 167.721C321.66 167.721 321.797 167.585 321.797 167.418C321.797 167.251 321.66 167.114 321.492 167.114C321.325 167.114 321.187 167.251 321.187 167.418ZM316.923 175.861C316.923 176.022 317.145 176.336 317.415 176.56C317.841 176.912 317.892 176.89 317.796 176.395C317.682 175.804 316.923 175.341 316.923 175.861ZM432.215 176.819C431.959 177.232 429.605 178.444 429.419 178.258C429.265 178.104 432.144 176.254 432.312 176.399C432.371 176.449 432.327 176.638 432.215 176.819ZM420.175 176.63C420.175 176.684 419.812 177.06 419.369 177.465L418.564 178.202L419.1 177.366C419.543 176.675 420.175 176.242 420.175 176.63ZM440.321 185.014C441.27 186.538 441.799 186.943 441.799 186.145C441.799 185.487 440.456 183.683 439.884 183.573C439.466 183.493 439.555 183.785 440.321 185.014ZM339.73 188.653C340.115 188.896 340.519 191.112 340.178 191.112C339.446 191.112 338.853 190.36 338.853 189.431C338.853 188.342 339.013 188.2 339.73 188.653ZM418.347 192.736C418.347 192.794 418.039 193.101 417.662 193.419L416.977 193.998L417.557 193.315C418.102 192.672 418.347 192.493 418.347 192.736ZM322.863 193.239C322.759 193.406 322.811 193.542 322.979 193.542C323.147 193.542 323.368 193.406 323.472 193.239C323.575 193.071 323.523 192.935 323.355 192.935C323.188 192.935 322.966 193.071 322.863 193.239ZM336.112 208.219C336.112 208.934 335.323 209.789 333.315 211.255C330.781 213.102 331.148 211.227 333.797 208.791C335.365 207.35 336.112 207.165 336.112 208.219ZM423.712 208.356C424.778 209.056 424.522 210.029 423.33 209.811C421.779 209.526 421.425 209.153 422.171 208.59C422.837 208.087 423.216 208.03 423.712 208.356ZM327.127 216.325C326.61 217.321 326.365 217.475 326.365 216.803C326.365 216.401 327.144 215.414 327.461 215.414C327.537 215.414 327.387 215.824 327.127 216.325ZM328.65 216.933C328.753 217.1 328.624 217.237 328.363 217.237C328.102 217.237 327.888 217.1 327.888 216.933C327.888 216.766 328.017 216.629 328.175 216.629C328.333 216.629 328.546 216.766 328.65 216.933ZM446.186 269.422C446.417 272.959 446.956 273.722 446.968 270.531C446.975 268.749 446.847 267.923 446.499 267.494C446.059 266.95 446.034 267.1 446.186 269.422ZM311.043 274.265C310.966 274.56 310.897 274.392 310.891 273.891C310.885 273.39 310.948 273.148 311.032 273.353C311.115 273.559 311.12 273.969 311.043 274.265ZM312.527 294.489C312.611 294.707 312.485 295.346 312.249 295.907C311.948 296.62 311.899 297.212 312.086 297.863C312.422 299.03 312.429 302.011 312.097 302.532C311.558 303.38 310.832 302.576 310.825 301.122C310.82 300.346 310.676 299.101 310.504 298.355C309.987 296.12 311.812 292.632 312.527 294.489ZM444.439 315.559C444.327 315.67 444.245 316.046 444.255 316.394C444.273 316.976 444.298 316.968 444.567 316.299C444.865 315.556 444.803 315.196 444.439 315.559Z" fill="url(#paint5_radial_1_3)"/>
<defs>
<linearGradient id="paint0_linear_1_3" x1="22.4953" y1="135.891" x2="22.4953" y2="280" gradientUnits="userSpaceOnUse">
<stop stop-color="#AFDDFF"/>
<stop offset="0.25" stop-color="#BFE4FF"/>
<stop offset="0.5" stop-color="#CAE8FF"/>
<stop offset="0.75" stop-color="#BFE4FF"/>
<stop offset="1" stop-color="#AFDDFF"/>
</linearGradient>
<linearGradient id="paint1_linear_1_3" x1="77.4625" y1="112.01" x2="77.4625" y2="305.25" gradientUnits="userSpaceOnUse">
<stop stop-color="#7FC2F3"/>
<stop offset="0.25" stop-color="#98D0FA"/>
<stop offset="0.5" stop-color="#AADBFF"/>
<stop offset="0.75" stop-color="#98D0FA"/>
<stop offset="1" stop-color="#7FC2F3"/>
</linearGradient>
<linearGradient id="paint2_linear_1_3" x1="144.653" y1="88.7415" x2="144.653" y2="325.046" gradientUnits="userSpaceOnUse">
<stop stop-color="#4A9EDA"/>
<stop offset="0.25" stop-color="#6AB8EF"/>
<stop offset="0.5" stop-color="#7EC9FD"/>
<stop offset="0.75" stop-color="#6AB8EF"/>
<stop offset="1" stop-color="#4A9EDA"/>
</linearGradient>
<radialGradient id="paint3_radial_1_3" cx="0" cy="0" r="1" gradientUnits="userSpaceOnUse" gradientTransform="translate(379.817 207.5) scale(207.5)">
<stop stop-color="#E9F2FF"/>
<stop offset="0.5" stop-color="#E5F1FF"/>
<stop offset="1" stop-color="#D7E2FF"/>
</radialGradient>
<radialGradient id="paint4_radial_1_3" cx="0" cy="0" r="1" gradientUnits="userSpaceOnUse" gradientTransform="translate(379.817 207.5) scale(207.5)">
<stop stop-color="#CFE2F2"/>
<stop offset="0.5" stop-color="#C1D6E9"/>
<stop offset="1" stop-color="#B6CDE2"/>
</radialGradient>
<radialGradient id="paint5_radial_1_3" cx="0" cy="0" r="1" gradientUnits="userSpaceOnUse" gradientTransform="translate(380 122) rotate(90) scale(394.5 267.283)">
<stop stop-color="#32A0E9"/>
<stop offset="0.229167" stop-color="#329CEA"/>
<stop offset="0.479167" stop-color="#1F86D9"/>
<stop offset="1" stop-color="#2681DA"/>
</radialGradient>
</defs>
</svg>
