<svg width="858" height="80" viewBox="0 0 858 80" fill="none" xmlns="http://www.w3.org/2000/svg">
<g filter="url(#filter0_d_1_55)">
<path d="M4.46875 47.6406L17.9688 46.3281C18.7812 50.8594 20.4219 54.1875 22.8906 56.3125C25.3906 58.4375 28.75 59.5 32.9688 59.5C37.4375 59.5 40.7969 58.5625 43.0469 56.6875C45.3281 54.7812 46.4688 52.5625 46.4688 50.0312C46.4688 48.4062 45.9844 47.0312 45.0156 45.9062C44.0781 44.75 42.4219 43.75 40.0469 42.9062C38.4219 42.3438 34.7188 41.3438 28.9375 39.9062C21.5 38.0625 16.2812 35.7969 13.2812 33.1094C9.0625 29.3281 6.95312 24.7188 6.95312 19.2812C6.95312 15.7812 7.9375 12.5156 9.90625 9.48438C11.9062 6.42188 14.7656 4.09375 18.4844 2.5C22.2344 0.90625 26.75 0.109375 32.0312 0.109375C40.6562 0.109375 47.1406 2 51.4844 5.78125C55.8594 9.5625 58.1562 14.6094 58.375 20.9219L44.5 21.5312C43.9062 18 42.625 15.4688 40.6562 13.9375C38.7188 12.375 35.7969 11.5938 31.8906 11.5938C27.8594 11.5938 24.7031 12.4219 22.4219 14.0781C20.9531 15.1406 20.2188 16.5625 20.2188 18.3438C20.2188 19.9688 20.9062 21.3594 22.2812 22.5156C24.0312 23.9844 28.2812 25.5156 35.0312 27.1094C41.7812 28.7031 46.7656 30.3594 49.9844 32.0781C53.2344 33.7656 55.7656 36.0938 57.5781 39.0625C59.4219 42 60.3438 45.6406 60.3438 49.9844C60.3438 53.9219 59.25 57.6094 57.0625 61.0469C54.875 64.4844 51.7812 67.0469 47.7812 68.7344C43.7812 70.3906 38.7969 71.2188 32.8281 71.2188C24.1406 71.2188 17.4688 69.2188 12.8125 65.2188C8.15625 61.1875 5.375 55.3281 4.46875 47.6406Z" fill="#595959"/>
<path d="M117.203 70H104.031V44.5938C104.031 39.2188 103.75 35.75 103.188 34.1875C102.625 32.5938 101.703 31.3594 100.422 30.4844C99.1719 29.6094 97.6562 29.1719 95.875 29.1719C93.5938 29.1719 91.5469 29.7969 89.7344 31.0469C87.9219 32.2969 86.6719 33.9531 85.9844 36.0156C85.3281 38.0781 85 41.8906 85 47.4531V70H71.8281V20.2188H84.0625V27.5312C88.4062 21.9062 93.875 19.0938 100.469 19.0938C103.375 19.0938 106.031 19.625 108.438 20.6875C110.844 21.7188 112.656 23.0469 113.875 24.6719C115.125 26.2969 115.984 28.1406 116.453 30.2031C116.953 32.2656 117.203 35.2188 117.203 39.0625V70Z" fill="#595959"/>
<path d="M127.562 44.4062C127.562 40.0312 128.641 35.7969 130.797 31.7031C132.953 27.6094 136 24.4844 139.938 22.3281C143.906 20.1719 148.328 19.0938 153.203 19.0938C160.734 19.0938 166.906 21.5469 171.719 26.4531C176.531 31.3281 178.938 37.5 178.938 44.9688C178.938 52.5 176.5 58.75 171.625 63.7188C166.781 68.6562 160.672 71.125 153.297 71.125C148.734 71.125 144.375 70.0938 140.219 68.0312C136.094 65.9688 132.953 62.9531 130.797 58.9844C128.641 54.9844 127.562 50.125 127.562 44.4062ZM141.062 45.1094C141.062 50.0469 142.234 53.8281 144.578 56.4531C146.922 59.0781 149.812 60.3906 153.25 60.3906C156.688 60.3906 159.562 59.0781 161.875 56.4531C164.219 53.8281 165.391 50.0156 165.391 45.0156C165.391 40.1406 164.219 36.3906 161.875 33.7656C159.562 31.1406 156.688 29.8281 153.25 29.8281C149.812 29.8281 146.922 31.1406 144.578 33.7656C142.234 36.3906 141.062 40.1719 141.062 45.1094Z" fill="#595959"/>
<path d="M198.578 70L182.828 20.2188H195.625L204.953 52.8438L213.531 20.2188H226.234L234.531 52.8438L244.047 20.2188H257.031L241.047 70H228.391L219.812 37.9844L211.375 70H198.578Z" fill="#595959"/>
<path d="M263.453 70V1.28125H276.625V26.0312C280.688 21.4062 285.5 19.0938 291.062 19.0938C297.125 19.0938 302.141 21.2969 306.109 25.7031C310.078 30.0781 312.062 36.375 312.062 44.5938C312.062 53.0938 310.031 59.6406 305.969 64.2344C301.938 68.8281 297.031 71.125 291.25 71.125C288.406 71.125 285.594 70.4219 282.812 69.0156C280.062 67.5781 277.688 65.4688 275.688 62.6875V70H263.453ZM276.531 44.0312C276.531 49.1875 277.344 53 278.969 55.4688C281.25 58.9688 284.281 60.7188 288.062 60.7188C290.969 60.7188 293.438 59.4844 295.469 57.0156C297.531 54.5156 298.562 50.5938 298.562 45.25C298.562 39.5625 297.531 35.4688 295.469 32.9688C293.406 30.4375 290.766 29.1719 287.547 29.1719C284.391 29.1719 281.766 30.4062 279.672 32.875C277.578 35.3125 276.531 39.0312 276.531 44.0312Z" fill="#595959"/>
<path d="M332.547 35.4062L320.594 33.25C321.938 28.4375 324.25 24.875 327.531 22.5625C330.812 20.25 335.688 19.0938 342.156 19.0938C348.031 19.0938 352.406 19.7969 355.281 21.2031C358.156 22.5781 360.172 24.3438 361.328 26.5C362.516 28.625 363.109 32.5469 363.109 38.2656L362.969 53.6406C362.969 58.0156 363.172 61.25 363.578 63.3438C364.016 65.4062 364.812 67.625 365.969 70H352.938C352.594 69.125 352.172 67.8281 351.672 66.1094C351.453 65.3281 351.297 64.8125 351.203 64.5625C348.953 66.75 346.547 68.3906 343.984 69.4844C341.422 70.5781 338.688 71.125 335.781 71.125C330.656 71.125 326.609 69.7344 323.641 66.9531C320.703 64.1719 319.234 60.6562 319.234 56.4062C319.234 53.5938 319.906 51.0938 321.25 48.9062C322.594 46.6875 324.469 45 326.875 43.8438C329.312 42.6562 332.812 41.625 337.375 40.75C343.531 39.5938 347.797 38.5156 350.172 37.5156V36.2031C350.172 33.6719 349.547 31.875 348.297 30.8125C347.047 29.7188 344.688 29.1719 341.219 29.1719C338.875 29.1719 337.047 29.6406 335.734 30.5781C334.422 31.4844 333.359 33.0938 332.547 35.4062ZM350.172 46.0938C348.484 46.6562 345.812 47.3281 342.156 48.1094C338.5 48.8906 336.109 49.6562 334.984 50.4062C333.266 51.625 332.406 53.1719 332.406 55.0469C332.406 56.8906 333.094 58.4844 334.469 59.8281C335.844 61.1719 337.594 61.8438 339.719 61.8438C342.094 61.8438 344.359 61.0625 346.516 59.5C348.109 58.3125 349.156 56.8594 349.656 55.1406C350 54.0156 350.172 51.875 350.172 48.7188V46.0938Z" fill="#595959"/>
<path d="M376.141 70V1.28125H389.312V70H376.141Z" fill="#595959"/>
<path d="M402.859 70V1.28125H416.031V70H402.859Z" fill="#595959"/>
<path d="M439.422 35.4062L427.469 33.25C428.812 28.4375 431.125 24.875 434.406 22.5625C437.688 20.25 442.562 19.0938 449.031 19.0938C454.906 19.0938 459.281 19.7969 462.156 21.2031C465.031 22.5781 467.047 24.3438 468.203 26.5C469.391 28.625 469.984 32.5469 469.984 38.2656L469.844 53.6406C469.844 58.0156 470.047 61.25 470.453 63.3438C470.891 65.4062 471.688 67.625 472.844 70H459.812C459.469 69.125 459.047 67.8281 458.547 66.1094C458.328 65.3281 458.172 64.8125 458.078 64.5625C455.828 66.75 453.422 68.3906 450.859 69.4844C448.297 70.5781 445.562 71.125 442.656 71.125C437.531 71.125 433.484 69.7344 430.516 66.9531C427.578 64.1719 426.109 60.6562 426.109 56.4062C426.109 53.5938 426.781 51.0938 428.125 48.9062C429.469 46.6875 431.344 45 433.75 43.8438C436.188 42.6562 439.688 41.625 444.25 40.75C450.406 39.5938 454.672 38.5156 457.047 37.5156V36.2031C457.047 33.6719 456.422 31.875 455.172 30.8125C453.922 29.7188 451.562 29.1719 448.094 29.1719C445.75 29.1719 443.922 29.6406 442.609 30.5781C441.297 31.4844 440.234 33.0938 439.422 35.4062ZM457.047 46.0938C455.359 46.6562 452.688 47.3281 449.031 48.1094C445.375 48.8906 442.984 49.6562 441.859 50.4062C440.141 51.625 439.281 53.1719 439.281 55.0469C439.281 56.8906 439.969 58.4844 441.344 59.8281C442.719 61.1719 444.469 61.8438 446.594 61.8438C448.969 61.8438 451.234 61.0625 453.391 59.5C454.984 58.3125 456.031 56.8594 456.531 55.1406C456.875 54.0156 457.047 51.875 457.047 48.7188V46.0938Z" fill="#595959"/>
<path d="M478.375 55.7969L491.594 53.7812C492.156 56.3438 493.297 58.2969 495.016 59.6406C496.734 60.9531 499.141 61.6094 502.234 61.6094C505.641 61.6094 508.203 60.9844 509.922 59.7344C511.078 58.8594 511.656 57.6875 511.656 56.2188C511.656 55.2188 511.344 54.3906 510.719 53.7344C510.062 53.1094 508.594 52.5312 506.312 52C495.688 49.6562 488.953 47.5156 486.109 45.5781C482.172 42.8906 480.203 39.1562 480.203 34.375C480.203 30.0625 481.906 26.4375 485.312 23.5C488.719 20.5625 494 19.0938 501.156 19.0938C507.969 19.0938 513.031 20.2031 516.344 22.4219C519.656 24.6406 521.938 27.9219 523.188 32.2656L510.766 34.5625C510.234 32.625 509.219 31.1406 507.719 30.1094C506.25 29.0781 504.141 28.5625 501.391 28.5625C497.922 28.5625 495.438 29.0469 493.938 30.0156C492.938 30.7031 492.438 31.5938 492.438 32.6875C492.438 33.625 492.875 34.4219 493.75 35.0781C494.938 35.9531 499.031 37.1875 506.031 38.7812C513.062 40.375 517.969 42.3281 520.75 44.6406C523.5 46.9844 524.875 50.25 524.875 54.4375C524.875 59 522.969 62.9219 519.156 66.2031C515.344 69.4844 509.703 71.125 502.234 71.125C495.453 71.125 490.078 69.75 486.109 67C482.172 64.25 479.594 60.5156 478.375 55.7969Z" fill="#595959"/>
<path d="M537.438 70V20.2188H545.031V27.2969C548.688 21.8281 553.969 19.0938 560.875 19.0938C563.875 19.0938 566.625 19.6406 569.125 20.7344C571.656 21.7969 573.547 23.2031 574.797 24.9531C576.047 26.7031 576.922 28.7812 577.422 31.1875C577.734 32.75 577.891 35.4844 577.891 39.3906V70H569.453V39.7188C569.453 36.2812 569.125 33.7188 568.469 32.0312C567.812 30.3125 566.641 28.9531 564.953 27.9531C563.297 26.9219 561.344 26.4062 559.094 26.4062C555.5 26.4062 552.391 27.5469 549.766 29.8281C547.172 32.1094 545.875 36.4375 545.875 42.8125V70H537.438Z" fill="#CCCCCC"/>
<path d="M587.734 45.1094C587.734 35.8906 590.297 29.0625 595.422 24.625C599.703 20.9375 604.922 19.0938 611.078 19.0938C617.922 19.0938 623.516 21.3438 627.859 25.8438C632.203 30.3125 634.375 36.5 634.375 44.4062C634.375 50.8125 633.406 55.8594 631.469 59.5469C629.562 63.2031 626.766 66.0469 623.078 68.0781C619.422 70.1094 615.422 71.125 611.078 71.125C604.109 71.125 598.469 68.8906 594.156 64.4219C589.875 59.9531 587.734 53.5156 587.734 45.1094ZM596.406 45.1094C596.406 51.4844 597.797 56.2656 600.578 59.4531C603.359 62.6094 606.859 64.1875 611.078 64.1875C615.266 64.1875 618.75 62.5938 621.531 59.4062C624.312 56.2188 625.703 51.3594 625.703 44.8281C625.703 38.6719 624.297 34.0156 621.484 30.8594C618.703 27.6719 615.234 26.0781 611.078 26.0781C606.859 26.0781 603.359 27.6562 600.578 30.8125C597.797 33.9688 596.406 38.7344 596.406 45.1094Z" fill="#CCCCCC"/>
<path d="M662.734 62.4531L663.953 69.9062C661.578 70.4062 659.453 70.6562 657.578 70.6562C654.516 70.6562 652.141 70.1719 650.453 69.2031C648.766 68.2344 647.578 66.9688 646.891 65.4062C646.203 63.8125 645.859 60.4844 645.859 55.4219V26.7812H639.672V20.2188H645.859V7.89062L654.25 2.82812V20.2188H662.734V26.7812H654.25V55.8906C654.25 58.2969 654.391 59.8438 654.672 60.5312C654.984 61.2188 655.469 61.7656 656.125 62.1719C656.812 62.5781 657.781 62.7812 659.031 62.7812C659.969 62.7812 661.203 62.6719 662.734 62.4531Z" fill="#CCCCCC"/>
<path d="M671.078 10.9844V1.28125H679.516V10.9844H671.078ZM671.078 70V20.2188H679.516V70H671.078Z" fill="#CCCCCC"/>
<path d="M724.891 51.7656L733.188 52.8438C732.281 58.5625 729.953 63.0469 726.203 66.2969C722.484 69.5156 717.906 71.125 712.469 71.125C705.656 71.125 700.172 68.9062 696.016 64.4688C691.891 60 689.828 53.6094 689.828 45.2969C689.828 39.9219 690.719 35.2188 692.5 31.1875C694.281 27.1562 696.984 24.1406 700.609 22.1406C704.266 20.1094 708.234 19.0938 712.516 19.0938C717.922 19.0938 722.344 20.4688 725.781 23.2188C729.219 25.9375 731.422 29.8125 732.391 34.8438L724.188 36.1094C723.406 32.7656 722.016 30.25 720.016 28.5625C718.047 26.875 715.656 26.0312 712.844 26.0312C708.594 26.0312 705.141 27.5625 702.484 30.625C699.828 33.6562 698.5 38.4688 698.5 45.0625C698.5 51.75 699.781 56.6094 702.344 59.6406C704.906 62.6719 708.25 64.1875 712.375 64.1875C715.688 64.1875 718.453 63.1719 720.672 61.1406C722.891 59.1094 724.297 55.9844 724.891 51.7656Z" fill="#CCCCCC"/>
<path d="M740.453 10.9844V1.28125H748.891V10.9844H740.453ZM740.453 70V20.2188H748.891V70H740.453Z" fill="#CCCCCC"/>
<path d="M794.266 63.8594C791.141 66.5156 788.125 68.3906 785.219 69.4844C782.344 70.5781 779.25 71.125 775.938 71.125C770.469 71.125 766.266 69.7969 763.328 67.1406C760.391 64.4531 758.922 61.0312 758.922 56.875C758.922 54.4375 759.469 52.2188 760.562 50.2188C761.688 48.1875 763.141 46.5625 764.922 45.3438C766.734 44.125 768.766 43.2031 771.016 42.5781C772.672 42.1406 775.172 41.7188 778.516 41.3125C785.328 40.5 790.344 39.5312 793.562 38.4062C793.594 37.25 793.609 36.5156 793.609 36.2031C793.609 32.7656 792.812 30.3438 791.219 28.9375C789.062 27.0312 785.859 26.0781 781.609 26.0781C777.641 26.0781 774.703 26.7812 772.797 28.1875C770.922 29.5625 769.531 32.0156 768.625 35.5469L760.375 34.4219C761.125 30.8906 762.359 28.0469 764.078 25.8906C765.797 23.7031 768.281 22.0312 771.531 20.875C774.781 19.6875 778.547 19.0938 782.828 19.0938C787.078 19.0938 790.531 19.5938 793.188 20.5938C795.844 21.5938 797.797 22.8594 799.047 24.3906C800.297 25.8906 801.172 27.7969 801.672 30.1094C801.953 31.5469 802.094 34.1406 802.094 37.8906V49.1406C802.094 56.9844 802.266 61.9531 802.609 64.0469C802.984 66.1094 803.703 68.0938 804.766 70H795.953C795.078 68.25 794.516 66.2031 794.266 63.8594ZM793.562 45.0156C790.5 46.2656 785.906 47.3281 779.781 48.2031C776.312 48.7031 773.859 49.2656 772.422 49.8906C770.984 50.5156 769.875 51.4375 769.094 52.6562C768.312 53.8438 767.922 55.1719 767.922 56.6406C767.922 58.8906 768.766 60.7656 770.453 62.2656C772.172 63.7656 774.672 64.5156 777.953 64.5156C781.203 64.5156 784.094 63.8125 786.625 62.4062C789.156 60.9688 791.016 59.0156 792.203 56.5469C793.109 54.6406 793.562 51.8281 793.562 48.1094V45.0156Z" fill="#CCCCCC"/>
<path d="M811.844 55.1406L820.188 53.8281C820.656 57.1719 821.953 59.7344 824.078 61.5156C826.234 63.2969 829.234 64.1875 833.078 64.1875C836.953 64.1875 839.828 63.4062 841.703 61.8438C843.578 60.25 844.516 58.3906 844.516 56.2656C844.516 54.3594 843.688 52.8594 842.031 51.7656C840.875 51.0156 838 50.0625 833.406 48.9062C827.219 47.3438 822.922 46 820.516 44.875C818.141 43.7188 816.328 42.1406 815.078 40.1406C813.859 38.1094 813.25 35.875 813.25 33.4375C813.25 31.2188 813.75 29.1719 814.75 27.2969C815.781 25.3906 817.172 23.8125 818.922 22.5625C820.234 21.5938 822.016 20.7812 824.266 20.125C826.547 19.4375 828.984 19.0938 831.578 19.0938C835.484 19.0938 838.906 19.6562 841.844 20.7812C844.812 21.9062 847 23.4375 848.406 25.375C849.812 27.2812 850.781 29.8438 851.312 33.0625L843.062 34.1875C842.688 31.625 841.594 29.625 839.781 28.1875C838 26.75 835.469 26.0312 832.188 26.0312C828.312 26.0312 825.547 26.6719 823.891 27.9531C822.234 29.2344 821.406 30.7344 821.406 32.4531C821.406 33.5469 821.75 34.5312 822.438 35.4062C823.125 36.3125 824.203 37.0625 825.672 37.6562C826.516 37.9688 829 38.6875 833.125 39.8125C839.094 41.4062 843.25 42.7188 845.594 43.75C847.969 44.75 849.828 46.2188 851.172 48.1562C852.516 50.0938 853.188 52.5 853.188 55.375C853.188 58.1875 852.359 60.8438 850.703 63.3438C849.078 65.8125 846.719 67.7344 843.625 69.1094C840.531 70.4531 837.031 71.125 833.125 71.125C826.656 71.125 821.719 69.7812 818.312 67.0938C814.938 64.4062 812.781 60.4219 811.844 55.1406Z" fill="#CCCCCC"/>
</g>
<defs>
<filter id="filter0_d_1_55" x="0.46875" y="0.109375" width="856.719" height="79.1094" filterUnits="userSpaceOnUse" color-interpolation-filters="sRGB">
<feFlood flood-opacity="0" result="BackgroundImageFix"/>
<feColorMatrix in="SourceAlpha" type="matrix" values="0 0 0 0 0 0 0 0 0 0 0 0 0 0 0 0 0 0 127 0" result="hardAlpha"/>
<feOffset dy="4"/>
<feGaussianBlur stdDeviation="2"/>
<feComposite in2="hardAlpha" operator="out"/>
<feColorMatrix type="matrix" values="0 0 0 0 0 0 0 0 0 0 0 0 0 0 0 0 0 0 0.25 0"/>
<feBlend mode="normal" in2="BackgroundImageFix" result="effect1_dropShadow_1_55"/>
<feBlend mode="normal" in="SourceGraphic" in2="effect1_dropShadow_1_55" result="shape"/>
</filter>
</defs>
</svg>
