<svg width="299" height="653" viewBox="0 0 299 653" fill="none" xmlns="http://www.w3.org/2000/svg">
<path fill-rule="evenodd" clip-rule="evenodd" d="M119.322 2.24998C107.808 20.327 99.75 53.824 101.521 76.25C102.333 86.529 102.405 86.489 95.14 79.829C87.49 72.815 79.245 67.619 71.336 64.827C65.027 62.6 60 57.808 60 54.02C60 53.459 59.55 53 59 53C56.607 53 58.023 62.842 61.468 70.146C69.334 86.823 67.736 88.764 55.075 77.913C40.965 65.822 31.146 59.577 12.507 50.838C1.01 45.447 -0.275008 45.528 6.00599 51.246C24.785 68.343 49.997 94.838 61.915 110C71.591 122.31 83.571 139.762 82.844 140.489C80.185 143.148 58.05 121.359 47.386 105.585C38.593 92.578 23.001 81.522 9.25 78.545C5.339 77.698 4.98 79.116 8.613 81.06C11.815 82.774 28.17 100.626 39.116 114.355C43.565 119.935 49.071 126.699 51.352 129.388C59.541 139.037 60.53 143.466 52.847 136.084C48.227 131.645 41.651 128 38.261 128C37.102 128 34.881 126.942 33.327 125.649C28.711 121.809 26.855 121.239 23.135 122.518L19.771 123.675L24.135 128.593C51.051 158.924 80.911 207.254 68.658 200.655C66.219 199.342 64.357 196.805 61.285 190.611C54.366 176.66 46.805 169.356 31.553 161.89C19.711 156.093 19.738 156.966 31.765 168.75C50.988 187.584 54.211 193.508 43.388 190.111C32.782 186.782 31.71 187.511 40.021 192.399C46.567 196.249 62.82 210.983 63.824 213.977C64.616 216.339 53.142 210.878 48.864 206.857C43.999 202.285 34.112 196.897 22.75 192.627C16.048 190.108 13.936 190.241 18.25 192.912C27.613 198.708 36.733 208 33.059 208C30.593 208 29.425 209.825 30.929 211.329C31.801 212.201 32.272 212.177 32.858 211.23C34.701 208.249 39.896 212.065 48.672 222.848C53.44 228.707 58.009 234.288 58.825 235.25C62.74 239.864 57.014 236.272 39.355 223.035C33.475 218.627 12.926 210.581 13.041 212.731C13.064 213.154 15.213 214.497 17.817 215.716C25.319 219.227 42 235.542 42 239.368C42 239.716 39.552 240 36.559 240C33.566 240 30.84 240.45 30.5 241C30.142 241.579 31.107 242 32.793 242C36.164 242 56.787 251.834 58.995 254.494C60.376 256.158 60.303 256.23 57.992 255.49C45.249 251.406 17.544 253.877 22.336 258.67C22.611 258.944 25.01 259.297 27.668 259.455C34.975 259.888 46.156 264.822 60.241 273.829C66.107 277.58 67.784 279.813 63.75 278.502C48.617 273.584 33.538 271.114 26.597 272.416C21.126 273.442 23.028 274.648 32.292 276.027C47.279 278.256 56.25 281.85 57.469 286.112C58.036 288.095 59.15 290.495 59.943 291.444C61.298 293.065 60.893 293.128 53.347 292.47C45.525 291.788 33.993 293.76 34.004 295.778C34.006 296.175 37.118 296.585 40.92 296.689C54.383 297.057 60.978 302.075 53.5 306.26C51.262 307.513 46.991 315.376 47.076 318.088C47.144 320.23 47.284 320.139 48.326 317.282C50.441 311.485 52.747 310.034 55.16 312.979C57.339 315.639 57.908 315.349 61.006 310C61.753 308.709 62.486 308.832 66.252 310.878C72.762 314.414 74.781 316.125 73.159 316.729C72.421 317.003 68.874 319.201 65.277 321.613C61.681 324.025 56.968 326.528 54.806 327.176C48.485 329.07 34.451 344.111 35.121 348.274C35.644 351.524 26.991 365 24.381 365C23.622 365 23 365.418 23 365.929C23 366.439 22.29 367.567 21.422 368.435C20.485 369.372 19.725 372.157 19.551 375.286C19.372 378.504 18.234 382.579 16.629 385.746C14.908 389.142 13.989 392.585 13.968 395.717C13.951 398.348 13.276 401.374 12.468 402.441C11.661 403.509 11 406.481 11 409.045C11 412.663 10.426 414.328 8.438 416.472C7.029 417.992 6.11499 419.858 6.40699 420.618C6.70999 421.407 6.30699 422 5.46899 422C3.64999 422 3.64699 421.927 5.64999 426.628C8.55899 433.456 9.353 450.387 6.983 455.034C5.892 457.171 5 460.078 5 461.493C5 462.909 3.865 466.305 2.479 469.042C-0.264001 474.454 0.118002 476.44 5.141 482.885C6.164 484.197 7.011 486.897 7.024 488.885C7.037 490.873 7.43099 494.151 7.89999 496.17C8.60999 499.222 8.34399 500.524 6.32499 503.912C4.26599 507.364 3.88299 509.338 3.81199 516.868C3.72599 526.004 4.69399 530.118 6.06399 526.434C6.45899 525.37 6.54999 527.243 6.26699 530.595C5.81699 535.907 6.023 536.944 7.878 538.671C9.779 540.443 9.991 541.657 9.873 550.114C9.764 558.021 10.099 560.273 11.916 563.835C13.15 566.255 14.247 570.577 14.455 573.839C14.681 577.393 16.04 582.423 18.02 587.041C21.782 595.809 22.245 596.971 24.493 603.291C25.43 605.926 28.065 610.026 30.348 612.401C32.632 614.777 36.184 619.371 38.242 622.61C40.3 625.85 43.76 630.721 45.93 633.435C48.101 636.15 49.792 638.79 49.688 639.303C49.585 639.815 50.279 640.365 51.23 640.526C52.182 640.686 53.714 641.571 54.635 642.492C58.557 646.414 69.653 648.913 83.5 648.991C89.55 649.026 98.775 649.559 104 650.176C124.469 652.594 162.02 653.021 174.154 650.974C178.045 650.318 182.926 650.052 185.001 650.384C187.685 650.813 190.124 650.39 193.454 648.917C196.915 647.386 199.158 647.02 202.065 647.511C204.91 647.992 206.137 647.806 206.509 646.838C206.849 645.95 208.833 645.5 212.406 645.5C216.219 645.5 218.38 644.966 219.811 643.671C220.922 642.665 223.083 641.705 224.613 641.537C226.142 641.369 228.203 640.232 229.193 639.01C231.045 636.722 232.299 636.555 240.002 637.569C245.453 638.287 250.086 633.898 247.998 629.996C246.538 627.269 245.833 627.486 246.573 630.435C247.17 632.813 247.102 632.844 243.592 631.767C241.616 631.161 240 630.307 240 629.871C240 628.684 244.088 625.107 246.218 624.431C247.455 624.038 247.893 623.239 247.519 622.06C246.635 619.274 247.704 617.637 253.089 613.53C258.815 609.163 261 605.598 261 600.621C261 597.352 263.042 594 265.033 594C265.522 594 266.435 592.087 267.06 589.75C267.686 587.413 269.696 582.575 271.526 579C275.72 570.809 279.873 554.157 278.009 553.006C276.604 552.137 277.452 541.403 279.084 539.413C280.751 537.378 282.156 522.701 281.509 514.081C281.155 509.361 280.899 504.825 280.94 504C281.203 498.758 280.85 485.985 280.369 483.298C279.943 480.918 280.386 479.267 282.096 476.865C285.368 472.271 285.46 464.636 282.25 464.18C280.125 463.879 280 463.404 280 455.63C280 451.104 279.538 446.938 278.973 446.373C278.086 445.486 277.772 433.564 278.121 414C278.204 409.388 277.798 406.451 275.802 397.203C274.677 391.994 273 389.236 273 392.596C273 396.332 269.27 390.987 268.633 386.339C268.287 383.815 266.562 379.23 264.8 376.15C263.038 373.07 261.526 369.864 261.44 369.025C261.354 368.186 260.584 365.7 259.727 363.5C258.871 361.3 257.927 358.375 257.629 357C256.61 352.3 253.835 349.79 254.589 354.25C255.465 359.436 253.792 359.17 245.914 352.874C237.744 346.345 237.509 345.889 239.423 340.273C242.59 330.978 238.783 325 229.696 325C227.663 325 226 324.554 226 324.009C226 323.464 224.431 322.002 222.512 320.759C218.076 317.885 218.103 317.716 223.513 314.545C230.509 310.445 240.215 307.136 247.405 306.399C255.643 305.555 255.035 304.322 245.938 303.425C237.094 302.554 237.387 301.524 247.762 297.02C257.493 292.796 258.445 292 253.772 292C249.305 292 237.568 295.544 233.197 298.212C228.928 300.819 228.551 300.268 230.929 294.893C233.469 289.151 244.796 283.179 259.25 279.962C265.744 278.516 266.824 277 261.36 277C259.177 277 257.252 276.359 256.549 275.398C255.893 274.501 253.317 273.565 250.689 273.268C245.038 272.632 244.638 271.47 249.75 270.542C258.553 268.943 268 264.794 268 262.525C268 255.304 252.779 253.365 241.25 259.118C235.995 261.74 234 262.343 234 261.309C234 260.524 233.543 260.165 232.984 260.51C232.425 260.856 232.133 261.445 232.334 261.819C232.536 262.194 231.092 263.85 229.125 265.5C225.733 268.345 225.797 268.181 230.363 262.324C237.42 253.274 246.409 246.809 248.721 249.121C249.513 249.913 250.12 249.644 250.921 248.148C252.463 245.266 260.462 241.857 263.288 242.877C265.891 243.817 273.782 243.163 274.534 241.945C275.604 240.213 267.152 239.731 253.541 240.748C238.074 241.903 236.939 241.605 239.606 237.09C241.638 233.649 242.51 233.28 243.362 235.5C244.52 238.519 246.017 236.98 245.549 233.25C245.198 230.45 245.668 228.608 247.403 225.978C248.681 224.04 250.743 220.44 251.984 217.978C255.89 210.229 268.878 196.629 274.17 194.747C274.901 194.487 275.206 193.956 274.847 193.568C274.488 193.179 273.271 193.438 272.143 194.143C270.483 195.179 267.621 194.762 269.083 193.696C269.313 193.529 272.425 191.152 276 188.412C283.797 182.438 288.417 179.678 293.331 178.056C302.104 175.16 297.738 174.382 287.464 177.009C269.007 181.73 264.175 185.158 239.651 210.936C227.533 223.672 232.712 212.315 248.79 190.895C256.666 180.402 261.307 175.563 281.75 156.525C289.9 148.936 289.64 148.374 279.909 152.539C264.432 159.163 254.879 166.332 247.947 176.526C244.59 181.462 240.153 187.525 238.087 190C236.02 192.475 232.617 197.088 230.523 200.25C225.814 207.363 225.378 207.464 228.348 200.75C232.215 192.012 233.914 189.196 233.96 191.45C234.017 194.234 235.647 192.177 236.466 188.287C237.07 185.42 236.866 185.004 234.571 184.429C227.059 182.543 250.655 147.654 264.5 140.177C267.344 138.642 267.383 138.539 265.247 138.209C264.007 138.017 261.809 138.792 260.362 139.93C257.831 141.921 255 142.681 255 141.371C255 139.135 265.071 122.267 267.876 119.804C270.497 117.503 270.979 116.605 269.939 115.962C268.876 115.305 269.387 113.975 272.305 109.812C277.445 102.477 278.119 101.716 281.25 99.713C282.762 98.746 284 97.238 284 96.362C284 94.96 283.672 94.987 281.25 96.585C279.738 97.583 276.475 99.407 274 100.638C268.339 103.454 265.111 106.256 260.705 112.18C258.791 114.753 255.486 118.588 253.362 120.702C251.238 122.815 247.139 127.198 244.253 130.442C238.169 137.282 236.636 137.235 240.583 130.329C243.854 124.605 264.185 97.265 270.316 90.346C272.677 87.681 276.795 82.575 279.466 79C282.136 75.425 285.424 71.299 286.771 69.83C291.404 64.78 288.79 64.658 279.349 69.483C268.229 75.167 262.141 81.066 250.755 97.19C241.188 110.737 223.433 133.396 219.62 136.924L217 139.349L216.938 131.424C216.904 127.066 216.547 120.211 216.144 116.191C215.365 108.414 218.378 98.459 227.026 80.231C228.662 76.783 230 73.105 230 72.057C230 71.009 233.005 64.886 236.677 58.45C244.972 43.914 251.313 37.464 260.75 33.963C264.316 32.64 265.164 30 262.023 30C241.993 30 197.697 65.735 181.042 95.331C177.045 102.433 176.933 102.324 173.51 88C168.437 66.779 161.841 50.012 153.356 36.775C150.883 32.917 148.448 28.679 147.946 27.357C142.425 12.837 123.277 -3.95902 119.322 2.24998ZM30.191 126.834L32.053 130.168L28.119 127.34C24.273 124.575 23.619 122.585 26.758 123.195C27.622 123.363 29.167 125 30.191 126.834ZM19.5 264C19.84 264.55 20.316 265 20.559 265C20.802 265 21 264.55 21 264C21 263.45 20.523 263 19.941 263C19.359 263 19.16 263.45 19.5 264ZM253.139 266.033C251.841 267.115 250.266 267.997 249.639 267.993C249.013 267.99 249.85 267.093 251.5 266C255.325 263.467 256.199 263.484 253.139 266.033ZM271.201 282.058C272.444 283.74 273.612 284.664 273.796 284.113C274.34 282.481 272.051 279 270.435 279C269.276 279 269.447 279.686 271.201 282.058ZM68.412 291.506C71.842 294.456 71.496 295.249 67.16 294.382C64.678 293.886 64 293.241 64 291.375C64 288.368 64.79 288.391 68.412 291.506ZM58 329.864C58 331.495 51.594 337 49.696 337C48.101 337 49.218 334.849 52.533 331.533C56.492 327.575 58 327.114 58 329.864ZM238 331C238.901 332.683 238.76 333 237.117 333C233.485 333 231.952 331.976 233.295 330.448C235.019 328.486 236.764 328.691 238 331ZM40.03 346.421C39.465 347.906 38.546 348.837 37.986 348.491C36.987 347.874 37.327 346.771 39.298 344.226C40.803 342.283 41.177 343.405 40.03 346.421ZM43.5 348C43.84 348.55 43.416 349 42.559 349C41.702 349 41 348.55 41 348C41 347.45 41.423 347 41.941 347C42.459 347 43.16 347.45 43.5 348ZM6.58099 467.753C5.49099 468.842 5.07799 467.417 5.76899 464.956L6.45899 462.5L6.80999 464.836C7.00399 466.121 6.89999 467.433 6.58099 467.753ZM9.985 506.75C9.976 507.712 9.56599 509.137 9.07299 509.917C8.53599 510.764 8.569 512.367 9.154 513.906C10.378 517.125 9.35799 523 7.57499 523C5.57899 523 4.88099 511.29 6.66499 507.75C8.22899 504.648 10.008 504.112 9.985 506.75Z" fill="black"/>
</svg>
