<svg width="1024" height="1024" viewBox="0 0 1024 1024" fill="none" xmlns="http://www.w3.org/2000/svg">
<rect width="1024" height="1024" fill="white"/>
<path d="M806.88 309.903C749.041 225.436 661.037 167.428 560.024 151.694C555.037 150.914 550.077 150.605 545.144 150.768C540.78 150.905 538.179 148.237 534.194 148.264C526.136 148.319 518.077 148.319 510.018 148.264C507.904 148.237 506.441 147.148 504.489 147.066C493.016 146.522 480.855 146.948 468.008 148.346C466.87 148.473 466.093 148.001 465.677 146.93C462.461 138.419 457.113 129.391 449.632 119.845C444.7 113.53 430.552 112.795 423.098 111.652C421.111 111.361 419.168 111.597 417.271 112.359C404.731 117.495 393.773 123.311 384.395 129.808C374.963 136.359 365.495 142.384 355.991 147.883C337.199 158.735 317.92 170.676 298.153 183.706C270.76 201.745 255.664 211.653 252.863 213.432C236.8 223.63 221.487 233.23 206.923 242.231C203.873 244.094 201.279 246.625 199.334 249.636C195.594 255.425 192.016 261.259 188.601 267.139C187.698 268.699 187.328 270.423 187.49 272.311C188.267 281.711 187.924 289.823 186.46 296.646C186.399 296.936 186.267 297.205 186.076 297.43C185.885 297.655 185.641 297.828 185.366 297.933C185.091 298.039 184.794 298.074 184.502 298.034C184.211 297.995 183.933 297.883 183.696 297.708L116.182 248.247C115.891 248.025 115.693 247.704 115.628 247.35C115.562 246.996 115.634 246.636 115.829 246.342C123.22 235.435 131.405 224.665 140.385 214.03C213.943 126.759 306.067 72.29 416.756 50.622C517.661 30.8594 623.933 47.4643 713.211 93.223C785.739 130.371 845.285 182.762 891.848 250.398C892.027 250.658 892.095 250.979 892.04 251.29C891.984 251.601 891.808 251.877 891.55 252.058L809.617 310.393C809.408 310.542 809.171 310.648 808.92 310.704C808.669 310.76 808.409 310.765 808.155 310.719C807.901 310.674 807.657 310.578 807.438 310.438C807.22 310.298 807.03 310.116 806.88 309.903Z" fill="#FCBF01"/>
<path d="M257.889 273.753C258.943 274.389 259.679 274.126 260.097 272.962C267.076 253.221 282.343 234.16 302.735 228.38C316.621 224.453 330.215 224.126 343.519 227.398C349.881 228.979 356.66 232.17 363.857 236.969C369.328 240.623 374.435 245.458 379.179 251.475C391.119 266.636 395.809 284.569 393.246 305.275C392.719 309.529 391.092 313.419 388.366 316.945C382.623 324.399 377.161 329.743 371.981 332.979C357.132 342.268 342.774 351.585 328.907 360.928C328.208 361.402 327.423 361.731 326.599 361.895C325.774 362.059 324.927 362.055 324.109 361.883C315.766 360.165 307.397 359.729 299.545 355.748C289.567 350.694 282.506 345.858 278.363 341.241C273.946 336.351 269.502 330.47 265.031 323.599C256.498 310.51 261.896 293.795 244.775 285.451C244.406 285.265 243.994 285.181 243.581 285.205C243.169 285.23 242.769 285.364 242.422 285.592C242.075 285.821 241.792 286.137 241.603 286.509C241.413 286.881 241.323 287.297 241.34 287.714C242.485 313.891 252.018 336.342 269.939 355.066C277.263 362.737 288.332 369.1 303.144 374.153C304.307 374.553 304.398 375.117 303.417 375.844C298.155 379.825 291.748 382.634 287.305 387.324C283.615 391.214 279.798 395.813 275.854 401.121C273.601 404.139 272.583 407.611 272.801 411.537C273.928 432.334 274.382 453.575 274.164 475.262C274.11 482.007 274.573 489.142 275.555 496.668C276.518 503.994 277.272 511.556 277.817 519.354C278.672 531.789 280.807 543.95 284.224 555.839C287.168 566.091 291.448 577.062 297.065 588.751C310.659 617.019 326.817 642.959 345.537 666.573C362.985 688.624 373.962 702.467 378.47 708.102C398.589 733.298 421.271 760.838 446.516 790.724C449.824 794.632 448.943 796.223 443.872 795.496C443.345 795.405 441.855 794.323 439.401 792.251C428.423 782.925 417.564 773.409 406.822 763.701C376.371 736.134 350.199 704.067 328.089 670.364C315.766 651.576 303.144 631.725 292.703 611.656C281.143 589.405 270.157 570.672 261.296 543.786C256.607 529.534 251.955 514.937 247.338 499.994C243.431 487.342 239.768 472.508 236.351 455.493C232.989 438.823 228.773 422.117 223.702 405.375C214.569 375.244 207.944 345.768 200.12 315.528C195.84 298.976 194.776 284.742 198.021 268.354C198.377 266.574 199.237 264.928 200.502 263.61C210.098 253.766 219.83 245.204 231.935 237.896C253.363 224.953 274.219 211.773 294.502 198.358C334.059 172.208 368.192 151.048 406.85 127.543C410.176 125.507 414.02 123.708 418.382 122.144C422.089 120.817 425.57 120.644 428.823 121.626C434.094 123.244 439.31 125.053 444.472 127.052C451.478 129.806 453.686 145.185 454.45 150.966C454.574 151.962 454.393 152.979 453.932 153.884C447.025 166.954 442.5 180.743 440.355 195.249C440.01 197.54 440.21 199.703 440.955 201.739C445.808 214.973 452.614 227.743 461.374 240.05C467.917 249.239 468.79 257.611 468.217 268.736C468.072 271.663 466.809 273.908 464.428 275.471C445.907 287.614 428.56 298.322 412.384 307.593C409.949 308.974 408.749 308.265 408.785 305.466C408.84 302.63 410.312 300.339 410.039 297.204C409.003 286.078 408.758 274.162 403.824 263.637C396.735 248.567 387.875 236.215 377.243 226.58C373.99 223.617 368.01 220.036 359.304 215.836C352.943 212.764 346.437 210.646 339.785 209.483C327.153 207.283 315.467 207.683 304.725 210.683C289.713 214.864 275.591 223.926 262.36 237.869C257.834 242.65 252.327 251.594 245.839 264.7C245.667 265.051 245.634 265.452 245.745 265.826C245.856 266.2 246.104 266.518 246.438 266.718L257.889 273.753Z" fill="#408C12"/>
<path d="M525.184 301.283C543.042 313.388 569.295 318.637 589.887 320.163C591.163 320.253 591.4 320.788 590.598 321.77C563.069 355.246 541.31 380.126 525.321 396.408C512.869 409.085 497.226 422.948 478.393 437.999C476.151 439.802 474.236 439.517 472.65 437.142C451.156 405.041 429.442 371.092 407.51 335.295C407.037 334.506 406.896 333.568 407.115 332.683C407.335 331.797 407.898 331.034 408.686 330.554L487.828 282.483C488.292 282.202 488.819 282.039 489.363 282.006C489.907 281.973 490.45 282.073 490.945 282.295C503.489 287.991 514.901 294.32 525.184 301.283Z" fill="#408C12"/>
<path d="M659.382 413.155C652.866 421.672 646.704 430.053 640.896 438.298C640.714 438.554 640.474 438.766 640.194 438.916C639.914 439.067 639.603 439.152 639.283 439.165C638.964 439.178 638.646 439.119 638.354 438.992C638.062 438.865 637.804 438.674 637.601 438.434C625.966 424.735 613.521 412.639 600.266 402.146C589.506 393.629 579.173 384.985 569.27 376.215C568.559 375.58 568.127 374.703 568.064 373.766C568.002 372.829 568.314 371.905 568.934 371.186L606.688 327.776C608.606 325.565 610.57 325.52 612.58 327.64C628.553 344.421 644.917 361.962 661.672 380.265C668.234 387.441 665.442 394.617 663.934 402.717C663.208 406.649 661.69 410.129 659.382 413.155Z" fill="#408C12"/>
<path d="M931.429 346.005C935.451 344.373 939.617 342.877 943.927 341.517C944.793 341.245 945.406 341.526 945.767 342.36C980.556 422.308 992.784 505.32 982.45 591.397C980.106 610.872 976.859 628.651 972.711 644.735C945.515 749.96 889.498 835.139 804.662 900.272C734.894 953.827 648.894 985.215 561.244 993.076C560.875 993.114 560.506 993.004 560.217 992.77C559.928 992.535 559.743 992.196 559.702 991.825L546.988 879.709C546.861 878.639 547.33 878.059 548.394 877.969C744.93 862.438 892.203 692.959 868.559 492.908C864.177 455.827 854.492 420.431 839.505 386.722C839.347 386.376 839.261 386 839.252 385.619C839.243 385.237 839.311 384.857 839.452 384.501C839.594 384.146 839.806 383.822 840.075 383.549C840.344 383.276 840.666 383.06 841.02 382.914C872.076 370.258 902.213 357.954 931.429 346.005Z" fill="#395723"/>
<path d="M297.067 407.114C299.818 401.614 300.144 398.534 305.944 394.573C314.35 388.835 321.938 384.306 328.709 380.987C332.086 379.337 339.565 377.357 351.147 375.047C352.999 374.68 354.742 373.984 356.375 372.957C369.246 364.889 380.756 355.878 390.904 345.922C391.154 345.675 391.456 345.488 391.788 345.375C392.119 345.262 392.471 345.225 392.819 345.267C393.166 345.309 393.5 345.429 393.795 345.619C394.09 345.809 394.34 346.063 394.525 346.362L458.68 449.935C458.726 450.009 458.756 450.091 458.77 450.177C458.783 450.262 458.78 450.349 458.759 450.431C458.739 450.514 458.702 450.591 458.651 450.657C458.6 450.723 458.536 450.777 458.463 450.815C429.834 465.336 400.471 476.704 370.372 484.918C345.193 491.793 319.569 498.238 293.5 504.251C292.229 504.545 291.757 504.05 292.084 502.766C295.651 488.768 300.008 474.137 300.907 460.056C301.86 445.04 299.409 432.636 295.406 418.775C294.39 415.273 294.943 411.386 297.067 407.114Z" fill="#408C12"/>
<path d="M479.652 879.237C481.205 879.346 481.91 880.182 481.765 881.745L470.683 993.075C470.556 994.475 469.797 995.111 468.406 994.984C366.773 986.768 278.354 951.575 203.149 889.407C44.1145 757.873 -5.04033 538.512 74.3281 348.191C74.7255 347.245 75.3939 346.955 76.3333 347.318L180.55 387.864C180.811 387.965 181.049 388.119 181.25 388.315C181.45 388.511 181.61 388.746 181.719 389.006C181.827 389.265 181.883 389.544 181.883 389.826C181.882 390.107 181.825 390.386 181.715 390.645C110.937 555.145 170.226 744.867 324.898 833.238C372.301 860.341 423.885 875.674 479.652 879.237Z" fill="#395723"/>
<path d="M531.83 534.021L488.021 462.754C487.69 462.207 487.522 461.577 487.536 460.939C487.551 460.3 487.748 459.681 488.103 459.156C496.609 446.523 507.888 437.405 518.079 426.475C530.435 413.256 543.027 400.348 555.854 387.752C556.072 387.537 556.365 387.417 556.67 387.417C556.974 387.417 557.267 387.537 557.485 387.752C568.174 398.023 579.262 407.727 590.749 416.863C599.88 424.113 607.843 432.627 615.887 441.058C618.007 443.292 619.158 445.827 619.339 448.665C619.828 455.778 621.132 464.594 615.425 470.087C604.537 480.559 594.037 489.668 583.928 497.413C567.676 509.826 553.354 523.887 534.358 534.68C533.307 535.266 532.464 535.047 531.83 534.021Z" fill="#408C12"/>
<path d="M654.485 460.126C657.933 444.648 670.323 426.948 680.128 413.693C680.644 412.993 681.405 412.522 682.253 412.379C683.101 412.236 683.97 412.431 684.68 412.925C689.636 416.355 691.549 420.334 694.808 425.082C706.39 441.877 716.114 458.8 723.979 475.851C724.949 477.964 725.569 480.269 725.111 482.602C723.252 491.713 721.528 501.263 716.841 509.605C710.269 521.241 703.814 531.596 697.475 540.67C695.499 543.488 693.802 543.323 692.384 540.176C690.391 535.758 688.99 530.901 686.727 526.647C675.863 506.175 665.259 485.273 654.916 463.94C654.323 462.715 654.18 461.443 654.485 460.126Z" fill="#408C12"/>
<path d="M459.96 574.168C445.157 581.031 431.969 586.082 420.397 589.32C412.515 591.528 403.028 592.586 391.935 592.494C390.994 592.494 390.292 592.09 389.831 591.28C388.262 588.465 387.016 585.631 386.093 582.779C379.31 561.693 370.478 535.942 370.589 515.105C370.644 506.696 373.321 501.369 378.618 499.124C382.937 497.284 387.727 495.5 392.987 493.77C405.575 489.63 418.006 485.564 430.281 481.571C440.663 478.176 450.325 472.767 460.182 468.433C461.145 468.012 462.199 467.844 463.241 467.945C464.284 468.047 465.281 468.415 466.134 469.013C472.419 473.346 478.648 476.962 482.884 483.751C495.399 503.899 507.691 523.605 519.763 542.87C520.409 543.882 520.196 544.664 519.126 545.216C502.053 554.158 482.331 563.809 459.96 574.168Z" fill="#408C12"/>
<path d="M642.601 475.911C652.033 495.447 662.569 514.2 672.498 533.088C677.187 542.005 677.849 550.517 679.145 560.19C679.531 563.054 678.878 565.414 677.187 567.27C670.016 575.187 663.121 582.888 654.626 589.238C635.319 603.64 616.702 618.799 594.859 630.58C594.379 630.834 593.819 630.9 593.291 630.764C592.764 630.629 592.309 630.302 592.018 629.851L543.862 554.11C542.612 552.147 542.97 550.517 544.938 549.22C553.35 543.707 561.845 538.762 569.705 532.385C583.698 521.037 597.709 509.904 611.738 498.987C620.766 491.944 628.801 484.009 635.843 475.182C636.257 474.653 636.803 474.238 637.429 473.977C638.055 473.716 638.739 473.617 639.418 473.69C640.096 473.763 640.744 474.006 641.302 474.395C641.859 474.784 642.306 475.306 642.601 475.911Z" fill="#408C12"/>
<path d="M320.133 594.535C315.257 584.229 310.337 573.869 305.373 563.456C299.781 551.747 299.942 538.365 295.963 526.251C295.84 525.873 295.794 525.472 295.83 525.076C295.866 524.679 295.981 524.293 296.17 523.942C296.358 523.592 296.616 523.283 296.927 523.035C297.238 522.788 297.596 522.606 297.979 522.501L350.674 508.256C351.051 508.154 351.446 508.139 351.829 508.212C352.213 508.285 352.575 508.445 352.888 508.678C353.201 508.912 353.457 509.214 353.637 509.562C353.817 509.909 353.916 510.293 353.927 510.684C354.483 531.099 358.426 551.872 365.757 573.006C367.89 579.211 371.143 585.803 375.516 592.782C376.143 593.789 376.412 594.904 376.323 596.127C376.179 598.088 375.158 599.302 373.258 599.769C358.202 603.457 342.573 604.734 326.37 603.6C325.51 603.546 324.847 603.151 324.38 602.413C322.875 600.003 321.459 597.377 320.133 594.535Z" fill="#408C12"/>
<path d="M747.037 588.243C741.348 606.142 735.393 623.854 728.983 641.62C728.289 643.574 727.514 644.861 726.66 645.482C725.004 646.69 723.935 646.299 723.455 644.31C717.045 617.764 711.294 592.495 706.202 568.506C705.722 566.268 706.825 562.601 709.514 557.505C716.867 543.513 725.013 529.351 733.95 515.022C734.13 514.731 734.372 514.484 734.659 514.297C734.946 514.11 735.271 513.988 735.612 513.94C735.953 513.892 736.301 513.918 736.632 514.018C736.963 514.117 737.269 514.287 737.529 514.515C738.686 515.563 739.505 516.895 739.986 518.511C745.114 535.664 748.381 550.136 749.787 561.927C750.829 570.85 749.814 579.506 747.037 588.243Z" fill="#408C12"/>
<path d="M561.089 652.546C534.242 667.245 502.204 683.53 472.735 690.017C469.869 690.648 467.201 689.998 464.732 688.068C456.973 682.027 449.97 675.429 444.104 667.412C433.271 652.583 422.15 637.634 410.741 622.564C408.722 619.892 406.893 617.062 405.253 614.074C405.164 613.915 405.111 613.737 405.099 613.554C405.088 613.371 405.117 613.188 405.185 613.018C405.253 612.849 405.358 612.698 405.491 612.577C405.625 612.456 405.784 612.368 405.956 612.32C428.305 606.604 449.646 598.512 469.977 588.045C482.035 581.846 493.814 576.362 505.313 571.592C512.965 568.419 520.021 563.992 527.348 560.123C527.741 559.909 528.2 559.86 528.631 559.984C529.063 560.107 529.435 560.396 529.673 560.791L577.419 639.379C577.606 639.699 577.679 640.074 577.625 640.437C577.57 640.8 577.392 641.126 577.121 641.355C571.967 645.791 566.622 649.521 561.089 652.546Z" fill="#408C12"/>
<path d="M641.119 708.187C629.359 688.967 616.577 668.986 602.773 648.244C602.68 648.11 602.617 647.959 602.587 647.799C602.556 647.639 602.559 647.473 602.594 647.311C602.63 647.149 602.698 646.995 602.795 646.856C602.891 646.718 603.014 646.599 603.156 646.505C618.96 636.288 635.038 627.376 649.582 615.909C662.675 605.601 674.982 594.814 686.504 583.546C686.781 583.277 687.124 583.084 687.5 582.987C687.876 582.891 688.27 582.893 688.644 582.995C689.018 583.097 689.359 583.294 689.632 583.567C689.906 583.84 690.102 584.18 690.202 584.552C694.584 600.312 698.684 616.271 702.5 632.43C705.842 646.578 707.677 659.621 708.005 671.558C708.17 677.455 703.979 679.927 700.227 683.569C685.765 697.698 670.253 710.569 653.691 722.181C653.276 722.472 652.803 722.672 652.305 722.768C651.806 722.864 651.292 722.854 650.797 722.738C650.303 722.623 649.839 722.404 649.436 722.097C649.032 721.791 648.7 721.402 648.459 720.958C646.031 716.466 643.584 712.208 641.119 708.187Z" fill="#408C12"/>
<path d="M743.439 648.566C747.665 636.927 751.937 624.962 756.254 612.671C756.329 612.457 756.451 612.262 756.612 612.102C756.773 611.942 756.969 611.82 757.184 611.747C757.399 611.673 757.628 611.65 757.853 611.678C758.079 611.706 758.295 611.786 758.485 611.91C759.555 612.599 760.127 613.659 760.199 615.091C760.562 622.325 761.306 629.214 762.43 635.758C764.045 645.294 763.999 660.341 762.294 680.899C761.95 685.141 761.823 689.32 761.913 693.435C762.077 700.85 759.61 710.232 754.513 721.58C750.676 730.119 745.207 734.932 738.514 741.105C726.977 751.729 715.577 761.355 704.313 769.985C701.537 772.106 698.608 773.565 695.524 774.363C692.84 775.052 692.051 774.127 693.157 771.589C701.918 751.393 710.153 730.074 717.863 707.63C721.563 696.862 722.706 685.712 728.8 675.841C734.269 666.922 739.82 658.465 743.439 648.566Z" fill="#408C12"/>
<path d="M338.273 624.889C337.738 624.001 337.978 623.475 338.995 623.312L378.272 617.463C379.217 617.317 380.082 617.517 380.867 618.061C388.43 623.266 394.69 628.997 399.649 635.254C413.803 653.073 425.735 672.77 440.718 691.051C442.074 692.701 441.717 693.753 439.648 694.207C423.006 697.825 407.114 699.729 390.419 695.513C389.473 695.277 388.671 694.787 388.011 694.043C369.228 672.461 352.649 649.41 338.273 624.889Z" fill="#408C12"/>
<path d="M592.836 753.949C584.892 757.498 575.673 763.015 567.104 763.071C561.139 763.126 555.246 762.997 549.425 762.683C546.949 762.535 544.698 761.721 542.674 760.243C524.435 746.73 505.617 730.944 486.221 712.885C483.997 710.814 482.036 708.587 480.337 706.202C479.505 705.038 479.777 704.317 481.15 704.04C494.165 701.378 509.169 695.952 526.161 687.764C547.003 677.726 567.24 667.135 586.871 655.988C587.274 655.757 587.747 655.691 588.191 655.804C588.636 655.918 589.018 656.203 589.257 656.598L634.918 731.268C635.034 731.463 635.11 731.68 635.141 731.906C635.173 732.132 635.159 732.361 635.1 732.58C635.041 732.798 634.94 733.001 634.801 733.176C634.663 733.351 634.49 733.494 634.295 733.597C621.352 740.584 607.532 747.368 592.836 753.949Z" fill="#408C12"/>
<path d="M660.927 737.929L694.772 709.952C695.153 709.622 695.63 709.434 696.127 709.418C696.623 709.402 697.11 709.558 697.511 709.862C697.912 710.166 698.203 710.601 698.339 711.097C698.475 711.592 698.448 712.121 698.261 712.599L679.178 763.509C679.032 763.908 678.783 764.257 678.458 764.517C678.133 764.778 677.745 764.94 677.337 764.986C676.928 765.033 676.516 764.961 676.144 764.779C675.773 764.597 675.457 764.312 675.232 763.955L660.47 741.05C660.152 740.566 660.021 739.975 660.106 739.396C660.191 738.816 660.484 738.292 660.927 737.929Z" fill="#408C12"/>
<path d="M465.679 771.582C440.78 760.631 422.847 738.844 405.323 718.308C405.219 718.188 405.147 718.041 405.115 717.882C405.084 717.722 405.093 717.557 405.143 717.404C405.193 717.25 405.282 717.113 405.399 717.007C405.517 716.901 405.66 716.83 405.813 716.801C415.065 714.999 425.061 713.35 435.8 711.852C443.402 710.809 449.787 711.34 454.958 713.444C463.339 716.877 470.523 721.408 476.509 727.04C492.419 742.02 508.783 756.336 525.6 769.989C525.718 770.094 525.804 770.233 525.848 770.389C525.891 770.545 525.889 770.711 525.843 770.865C525.796 771.02 525.707 771.157 525.586 771.259C525.466 771.362 525.319 771.424 525.164 771.44C507.077 772.634 488.501 772.957 469.434 772.407C468.128 772.388 466.876 772.113 465.679 771.582Z" fill="#408C12"/>
<path d="M663.813 780.33L592.85 776.289C592.429 776.265 592.029 776.113 591.712 775.855C591.395 775.597 591.179 775.248 591.098 774.864C591.017 774.479 591.076 774.081 591.265 773.731C591.454 773.381 591.763 773.099 592.143 772.93L644.081 749.847C644.495 749.658 644.968 749.616 645.413 749.728C645.858 749.839 646.244 750.097 646.5 750.453L665.525 777.602C665.717 777.877 665.823 778.196 665.832 778.523C665.84 778.85 665.751 779.173 665.573 779.456C665.396 779.739 665.137 779.971 664.826 780.125C664.515 780.279 664.165 780.35 663.813 780.33Z" fill="#408C12"/>
<path d="M570.663 823.703C542.786 815.773 519.243 807.317 496.343 793.981C492.008 791.449 492.285 789.702 497.172 788.741C499.169 788.334 501.221 788.168 503.325 788.242C517.915 788.704 532.29 788.038 546.452 786.246C551.107 785.636 556.618 786.856 561.166 788.075C583.96 794.231 604.417 797.4 622.538 797.585C624.072 797.604 628.888 798.01 636.985 798.805C641.605 799.267 646.456 799.304 651.539 798.916C654.678 798.676 655.169 799.748 653.01 802.132C651.352 803.981 649.39 805.413 647.125 806.43C632.589 813.065 617.794 819.784 602.741 826.586C599.513 828.046 595.981 828.545 592.146 828.083C584.941 827.196 577.78 825.736 570.663 823.703Z" fill="#408C12"/>
</svg>
